Commissioner-LoudThinItalic.ufo
<glyph name="numbersign" format="2">
  <advance width="1342"/>
  <unicode hex="0023"/>
  <outline>
    <contour>
      <point x="8" y="338" type="line"/>
      <point x="124" y="340"/>
      <point x="258" y="342"/>
      <point x="328" y="342" type="curve"/>
      <point x="828" y="342" type="line"/>
      <point x="898" y="342"/>
      <point x="1032" y="340"/>
      <point x="1148" y="338" type="curve"/>
      <point x="1160" y="402" type="line"/>
      <point x="1044" y="400"/>
      <point x="910" y="398"/>
      <point x="840" y="398" type="curve"/>
      <point x="340" y="398" type="line"/>
      <point x="270" y="398"/>
      <point x="136" y="400"/>
      <point x="20" y="402" type="curve"/>
    </contour>
    <contour>
      <point x="150" y="0" type="curve"/>
      <point x="224" y="0" type="line"/>
      <point x="280" y="134"/>
      <point x="328" y="250"/>
      <point x="398" y="418" type="curve"/>
      <point x="592" y="874" type="line"/>
      <point x="668" y="1048"/>
      <point x="718" y="1164"/>
      <point x="780" y="1306" type="curve"/>
      <point x="706" y="1306" type="line"/>
      <point x="650" y="1170"/>
      <point x="600" y="1050"/>
      <point x="526" y="874" type="curve"/>
      <point x="332" y="418" type="line"/>
      <point x="260" y="252"/>
      <point x="208" y="134"/>
    </contour>
    <contour>
      <point x="248" y="898" type="line"/>
      <point x="364" y="900"/>
      <point x="498" y="902"/>
      <point x="568" y="902" type="curve"/>
      <point x="1068" y="902" type="line"/>
      <point x="1138" y="902"/>
      <point x="1272" y="900"/>
      <point x="1388" y="898" type="curve"/>
      <point x="1400" y="962" type="line"/>
      <point x="1284" y="960"/>
      <point x="1150" y="958"/>
      <point x="1080" y="958" type="curve"/>
      <point x="580" y="958" type="line"/>
      <point x="510" y="958"/>
      <point x="376" y="960"/>
      <point x="260" y="962" type="curve"/>
    </contour>
    <contour>
      <point x="610" y="0" type="curve"/>
      <point x="684" y="0" type="line"/>
      <point x="740" y="134"/>
      <point x="788" y="250"/>
      <point x="858" y="418" type="curve"/>
      <point x="1052" y="874" type="line"/>
      <point x="1128" y="1048"/>
      <point x="1178" y="1164"/>
      <point x="1240" y="1306" type="curve"/>
      <point x="1166" y="1306" type="line"/>
      <point x="1110" y="1170"/>
      <point x="1060" y="1050"/>
      <point x="986" y="874" type="curve"/>
      <point x="792" y="418" type="line"/>
      <point x="720" y="252"/>
      <point x="668" y="134"/>
    </contour>
  </outline>
</glyph>
<glyph name="dollar" format="2">
  <advance width="1104"/>
  <unicode hex="0024"/>
  <outline>
    <contour>
      <point x="512" y="-18" type="curve" smooth="yes"/>
      <point x="788" y="-18"/>
      <point x="930" y="106"/>
      <point x="972" y="308" type="curve" smooth="yes"/>
      <point x="1008" y="480"/>
      <point x="932" y="604"/>
      <point x="630" y="734" type="curve" smooth="yes"/>
      <point x="366" y="848"/>
      <point x="278" y="924"/>
      <point x="314" y="1092" type="curve" smooth="yes"/>
      <point x="354" y="1284"/>
      <point x="536" y="1328"/>
      <point x="702" y="1328" type="curve"/>
      <point x="746" y="1328"/>
      <point x="910" y="1272"/>
      <point x="1060" y="1208" type="curve"/>
      <point x="1088" y="1272" type="line"/>
      <point x="986" y="1310"/>
      <point x="780" y="1392"/>
      <point x="702" y="1392" type="curve" smooth="yes"/>
      <point x="444" y="1392"/>
      <point x="292" y="1284"/>
      <point x="254" y="1104" type="curve" smooth="yes"/>
      <point x="210" y="900"/>
      <point x="324" y="800"/>
      <point x="594" y="682" type="curve" smooth="yes"/>
      <point x="824" y="582"/>
      <point x="948" y="494"/>
      <point x="912" y="320" type="curve" smooth="yes"/>
      <point x="864" y="90"/>
      <point x="680" y="46"/>
      <point x="512" y="46" type="curve"/>
      <point x="416" y="46"/>
      <point x="266" y="106"/>
      <point x="92" y="186" type="curve"/>
      <point x="66" y="120" type="line"/>
      <point x="228" y="50"/>
      <point x="412" y="-18"/>
    </contour>
    <contour>
      <point x="364" y="-274" type="curve"/>
      <point x="432" y="-274" type="line"/>
      <point x="490" y="2"/>
      <point x="552" y="308"/>
      <point x="568" y="384" type="curve"/>
      <point x="688" y="948" type="line"/>
      <point x="704" y="1024"/>
      <point x="772" y="1328"/>
      <point x="832" y="1606" type="curve"/>
      <point x="764" y="1606" type="line"/>
      <point x="706" y="1328"/>
      <point x="644" y="1024"/>
      <point x="628" y="948" type="curve"/>
      <point x="508" y="384" type="line"/>
      <point x="492" y="308"/>
      <point x="424" y="2"/>
    </contour>
  </outline>
</glyph>
<glyph name="parenleft" format="2">
  <advance width="728"/>
  <unicode hex="0028"/>
  <outline>
    <contour>
      <point x="422" y="-224" type="curve"/>
      <point x="494" y="-202" type="line"/>
      <point x="340" y="54"/>
      <point x="176" y="362"/>
      <point x="244" y="682" type="curve" smooth="yes"/>
      <point x="312" y="1002"/>
      <point x="596" y="1268"/>
      <point x="844" y="1486" type="curve"/>
      <point x="776" y="1520" type="line"/>
      <point x="534" y="1294"/>
      <point x="254" y="1024"/>
      <point x="182" y="688" type="curve" smooth="yes"/>
      <point x="110" y="354"/>
      <point x="278" y="38"/>
    </contour>
  </outline>
</glyph>
<glyph name="plus" format="2">
  <advance width="1160"/>
  <unicode hex="002B"/>
  <outline>
    <contour>
      <point x="468" y="130" type="curve"/>
      <point x="538" y="130" type="line"/>
      <point x="562" y="250"/>
      <point x="588" y="380"/>
      <point x="602" y="450" type="curve"/>
      <point x="662" y="730" type="line"/>
      <point x="678" y="800"/>
      <point x="708" y="934"/>
      <point x="734" y="1050" type="curve"/>
      <point x="664" y="1050" type="line"/>
      <point x="642" y="936"/>
      <point x="614" y="798"/>
      <point x="600" y="730" type="curve"/>
      <point x="540" y="450" type="line"/>
      <point x="526" y="382"/>
      <point x="496" y="248"/>
    </contour>
    <contour>
      <point x="154" y="556" type="line"/>
      <point x="270" y="558"/>
      <point x="404" y="560"/>
      <point x="474" y="560" type="curve"/>
      <point x="714" y="560" type="line"/>
      <point x="784" y="560"/>
      <point x="918" y="558"/>
      <point x="1034" y="556" type="curve"/>
      <point x="1048" y="624" type="line"/>
      <point x="932" y="622"/>
      <point x="796" y="620"/>
      <point x="726" y="620" type="curve"/>
      <point x="486" y="620" type="line"/>
      <point x="416" y="620"/>
      <point x="284" y="622"/>
      <point x="168" y="624" type="curve"/>
    </contour>
  </outline>
</glyph>
<glyph name="slash" format="2">
  <advance width="876"/>
  <unicode hex="002F"/>
  <outline>
    <contour>
      <point x="-28" y="0" type="curve"/>
      <point x="52" y="0" type="line"/>
      <point x="148" y="148"/>
      <point x="230" y="272"/>
      <point x="350" y="456" type="curve"/>
      <point x="676" y="948" type="line"/>
      <point x="802" y="1138"/>
      <point x="888" y="1266"/>
      <point x="996" y="1426" type="curve"/>
      <point x="916" y="1426" type="line"/>
      <point x="816" y="1274"/>
      <point x="732" y="1144"/>
      <point x="606" y="952" type="curve"/>
      <point x="278" y="456" type="line"/>
      <point x="154" y="272"/>
      <point x="70" y="146"/>
    </contour>
  </outline>
</glyph>
<glyph name="four" format="2">
  <advance width="1178"/>
  <unicode hex="0034"/>
  <outline>
    <contour>
      <point x="654" y="0" type="curve"/>
      <point x="724" y="0" type="line"/>
      <point x="748" y="122"/>
      <point x="768" y="218"/>
      <point x="796" y="360" type="curve"/>
      <point x="908" y="886" type="line"/>
      <point x="944" y="1046"/>
      <point x="978" y="1200"/>
      <point x="1016" y="1368" type="curve"/>
      <point x="942" y="1368" type="line"/>
      <point x="858" y="1274"/>
      <point x="772" y="1178"/>
      <point x="688" y="1084" type="curve"/>
      <point x="448" y="824" type="line"/>
      <point x="328" y="694"/>
      <point x="162" y="518"/>
      <point x="48" y="394" type="curve"/>
      <point x="38" y="338" type="line"/>
      <point x="776" y="338" type="line"/>
      <point x="870" y="338"/>
      <point x="1006" y="336"/>
      <point x="1092" y="334" type="curve"/>
      <point x="1106" y="402" type="line"/>
      <point x="1020" y="400"/>
      <point x="882" y="398"/>
      <point x="788" y="398" type="curve"/>
      <point x="762" y="398" type="line"/>
      <point x="106" y="398" type="line"/>
      <point x="110" y="364" type="line"/>
      <point x="196" y="460"/>
      <point x="280" y="554"/>
      <point x="366" y="650" type="curve"/>
      <point x="698" y="1010" type="line"/>
      <point x="798" y="1120"/>
      <point x="900" y="1232"/>
      <point x="1002" y="1342" type="curve"/>
      <point x="938" y="1326" type="line"/>
      <point x="908" y="1176"/>
      <point x="878" y="1036"/>
      <point x="848" y="886" type="curve"/>
      <point x="742" y="386" type="line"/>
      <point x="736" y="360" type="line"/>
      <point x="704" y="218"/>
      <point x="682" y="122"/>
    </contour>
  </outline>
</glyph>
<glyph name="five" format="2">
  <advance width="1136"/>
  <unicode hex="0035"/>
  <outline>
    <contour>
      <point x="468" y="-18" type="curve" smooth="yes"/>
      <point x="754" y="-18"/>
      <point x="936" y="114"/>
      <point x="994" y="386" type="curve" smooth="yes"/>
      <point x="1058" y="682"/>
      <point x="864" y="866"/>
      <point x="622" y="866" type="curve" smooth="yes"/>
      <point x="520" y="866"/>
      <point x="414" y="824"/>
      <point x="326" y="788" type="curve"/>
      <point x="314" y="788" type="line"/>
      <point x="336" y="894" type="line"/>
      <point x="362" y="1020"/>
      <point x="400" y="1188"/>
      <point x="430" y="1336" type="curve"/>
      <point x="398" y="1308" type="line"/>
      <point x="606" y="1308" type="line"/>
      <point x="766" y="1306"/>
      <point x="932" y="1304"/>
      <point x="1096" y="1302" type="curve"/>
      <point x="1110" y="1368" type="line"/>
      <point x="370" y="1368" type="line"/>
      <point x="342" y="1224"/>
      <point x="310" y="1064"/>
      <point x="276" y="894" type="curve"/>
      <point x="234" y="692" type="line"/>
      <point x="264" y="688" type="line"/>
      <point x="396" y="762"/>
      <point x="536" y="802"/>
      <point x="620" y="802" type="curve" smooth="yes"/>
      <point x="826" y="800"/>
      <point x="990" y="668"/>
      <point x="934" y="396" type="curve" smooth="yes"/>
      <point x="884" y="150"/>
      <point x="726" y="48"/>
      <point x="466" y="46" type="curve"/>
      <point x="368" y="46"/>
      <point x="218" y="108"/>
      <point x="46" y="188" type="curve"/>
      <point x="20" y="120" type="line"/>
      <point x="182" y="52"/>
      <point x="366" y="-18"/>
    </contour>
  </outline>
</glyph>
<glyph name="equal" format="2">
  <advance width="1120"/>
  <unicode hex="003D"/>
  <outline>
    <contour>
      <point x="110" y="346" type="line"/>
      <point x="226" y="348"/>
      <point x="360" y="350"/>
      <point x="430" y="350" type="curve"/>
      <point x="630" y="350" type="line"/>
      <point x="700" y="350"/>
      <point x="834" y="348"/>
      <point x="950" y="346" type="curve"/>
      <point x="964" y="414" type="line"/>
      <point x="848" y="412"/>
      <point x="712" y="410"/>
      <point x="642" y="410" type="curve"/>
      <point x="442" y="410" type="line"/>
      <point x="372" y="410"/>
      <point x="240" y="412"/>
      <point x="124" y="414" type="curve"/>
    </contour>
    <contour>
      <point x="196" y="766" type="line"/>
      <point x="312" y="768"/>
      <point x="446" y="770"/>
      <point x="516" y="770" type="curve"/>
      <point x="716" y="770" type="line"/>
      <point x="786" y="770"/>
      <point x="920" y="768"/>
      <point x="1036" y="766" type="curve"/>
      <point x="1050" y="834" type="line"/>
      <point x="934" y="832"/>
      <point x="798" y="830"/>
      <point x="728" y="830" type="curve"/>
      <point x="528" y="830" type="line"/>
      <point x="458" y="830"/>
      <point x="326" y="832"/>
      <point x="210" y="834" type="curve"/>
    </contour>
  </outline>
</glyph>
<glyph name="greater" format="2">
  <advance width="1120"/>
  <unicode hex="003E"/>
  <outline>
    <contour>
      <point x="72" y="172" type="line"/>
      <point x="198" y="226"/>
      <point x="320" y="278"/>
      <point x="426" y="322" type="curve"/>
      <point x="644" y="412" type="line"/>
      <point x="746" y="454"/>
      <point x="868" y="504"/>
      <point x="992" y="552" type="curve"/>
      <point x="1008" y="624" type="line"/>
      <point x="904" y="672"/>
      <point x="802" y="722"/>
      <point x="720" y="764" type="curve"/>
      <point x="538" y="854" type="line"/>
      <point x="452" y="898"/>
      <point x="350" y="952"/>
      <point x="248" y="1004" type="curve"/>
      <point x="232" y="932" type="line"/>
      <point x="374" y="864"/>
      <point x="534" y="788"/>
      <point x="680" y="718" type="curve"/>
      <point x="918" y="600" type="line"/>
      <point x="914" y="588" type="line"/>
      <point x="628" y="470" type="line"/>
      <point x="452" y="400"/>
      <point x="260" y="324"/>
      <point x="88" y="256" type="curve"/>
    </contour>
  </outline>
</glyph>
<glyph name="A" format="2">
  <advance width="1336"/>
  <unicode hex="0041"/>
  <anchor x="564" y="0" name="bottom"/>
  <anchor x="1166" y="0" name="ogonek"/>
  <anchor x="864" y="1426" name="top"/>
  <outline>
    <contour>
      <point x="-42" y="0" type="curve"/>
      <point x="48" y="0" type="line"/>
      <point x="154" y="182"/>
      <point x="266" y="372"/>
      <point x="370" y="550" type="curve"/>
      <point x="850" y="1354" type="line"/>
      <point x="862" y="1354" type="line"/>
      <point x="1000" y="548" type="line"/>
      <point x="1028" y="374"/>
      <point x="1060" y="174"/>
      <point x="1088" y="0" type="curve"/>
      <point x="1166" y="0" type="line"/>
      <point x="1138" y="150"/>
      <point x="1106" y="324"/>
      <point x="1076" y="486" type="curve"/>
      <point x="992" y="974" type="line"/>
      <point x="966" y="1142"/>
      <point x="944" y="1284"/>
      <point x="922" y="1426" type="curve"/>
      <point x="812" y="1426" type="line"/>
      <point x="726" y="1278"/>
      <point x="648" y="1144"/>
      <point x="550" y="976" type="curve"/>
      <point x="258" y="486" type="line"/>
      <point x="164" y="334"/>
      <point x="54" y="156"/>
    </contour>
    <contour>
      <point x="256" y="406" type="line"/>
      <point x="1046" y="406" type="line"/>
      <point x="1058" y="466" type="line"/>
      <point x="268" y="466" type="line"/>
    </contour>
  </outline>
</glyph>
<glyph name="C" format="2">
  <advance width="1373"/>
  <unicode hex="0043"/>
  <anchor x="699" y="0" name="bottom"/>
  <anchor x="979" y="1426" name="top"/>
  <outline>
    <contour>
      <point x="763" y="-18" type="curve" smooth="yes"/>
      <point x="855" y="-18"/>
      <point x="1045" y="38"/>
      <point x="1165" y="82" type="curve"/>
      <point x="1169" y="168" type="line"/>
      <point x="1021" y="98"/>
      <point x="827" y="48"/>
      <point x="761" y="48" type="curve"/>
      <point x="329" y="54"/>
      <point x="163" y="408"/>
      <point x="243" y="786" type="curve" smooth="yes"/>
      <point x="329" y="1190"/>
      <point x="601" y="1378"/>
      <point x="973" y="1384" type="curve"/>
      <point x="1029" y="1384"/>
      <point x="1225" y="1330"/>
      <point x="1415" y="1262" type="curve"/>
      <point x="1439" y="1334" type="line"/>
      <point x="1321" y="1372"/>
      <point x="1073" y="1450"/>
      <point x="977" y="1450" type="curve" smooth="yes"/>
      <point x="573" y="1450"/>
      <point x="269" y="1224"/>
      <point x="179" y="798" type="curve" smooth="yes"/>
      <point x="91" y="382"/>
      <point x="293" y="-18"/>
    </contour>
  </outline>
</glyph>
<glyph name="G" format="2">
  <advance width="1475"/>
  <unicode hex="0047"/>
  <anchor x="699" y="0" name="bottom"/>
  <anchor x="999" y="1426" name="top"/>
  <outline>
    <contour>
      <point x="797" y="-18" type="curve" smooth="yes"/>
      <point x="897" y="-18"/>
      <point x="1105" y="32"/>
      <point x="1233" y="72" type="curve"/>
      <point x="1229" y="150" type="line"/>
      <point x="1075" y="90"/>
      <point x="867" y="48"/>
      <point x="799" y="48" type="curve"/>
      <point x="313" y="54"/>
      <point x="163" y="408"/>
      <point x="243" y="786" type="curve" smooth="yes"/>
      <point x="331" y="1198"/>
      <point x="597" y="1378"/>
      <point x="969" y="1384" type="curve"/>
      <point x="1029" y="1384"/>
      <point x="1237" y="1320"/>
      <point x="1437" y="1238" type="curve"/>
      <point x="1461" y="1310" type="line"/>
      <point x="1335" y="1356"/>
      <point x="1069" y="1450"/>
      <point x="967" y="1450" type="curve" smooth="yes"/>
      <point x="557" y="1450"/>
      <point x="269" y="1220"/>
      <point x="179" y="798" type="curve" smooth="yes"/>
      <point x="89" y="374"/>
      <point x="287" y="-18"/>
    </contour>
    <contour>
      <point x="1161" y="72" type="curve"/>
      <point x="1233" y="72" type="line"/>
      <point x="1259" y="204"/>
      <point x="1277" y="300"/>
      <point x="1297" y="400" type="curve"/>
      <point x="1325" y="520"/>
      <point x="1345" y="604"/>
      <point x="1367" y="698" type="curve"/>
      <point x="1289" y="698" type="line"/>
      <point x="1271" y="604"/>
      <point x="1255" y="520"/>
      <point x="1233" y="400" type="curve"/>
      <point x="1211" y="300"/>
      <point x="1189" y="198"/>
    </contour>
  </outline>
</glyph>
<glyph name="I" format="2">
  <advance width="506"/>
  <unicode hex="0049"/>
  <anchor x="148" y="0" name="bottom"/>
  <anchor x="186" y="0" name="ogonek"/>
  <anchor x="448" y="1426" name="top"/>
  <anchor x="270" y="1426" name="topleft"/>
  <outline>
    <contour>
      <point x="112" y="0" type="curve"/>
      <point x="186" y="0" type="line"/>
      <point x="218" y="162"/>
      <point x="244" y="296"/>
      <point x="280" y="476" type="curve"/>
      <point x="380" y="946" type="line"/>
      <point x="420" y="1126"/>
      <point x="450" y="1264"/>
      <point x="486" y="1426" type="curve"/>
      <point x="412" y="1426" type="line"/>
      <point x="380" y="1268"/>
      <point x="352" y="1124"/>
      <point x="316" y="946" type="curve"/>
      <point x="216" y="476" type="line"/>
      <point x="178" y="302"/>
      <point x="148" y="166"/>
    </contour>
  </outline>
</glyph>
<glyph name="J" format="2">
  <advance width="542"/>
  <unicode hex="004A"/>
  <anchor x="182" y="0" name="bottom"/>
  <anchor x="482" y="1426" name="top"/>
  <outline>
    <contour>
      <point x="-116" y="-320" type="curve"/>
      <point x="-28" y="-320" type="line"/>
      <point x="46" y="-216"/>
      <point x="226" y="38"/>
      <point x="232" y="70" type="curve" smooth="yes"/>
      <point x="266" y="224"/>
      <point x="296" y="382"/>
      <point x="330" y="542" type="curve"/>
      <point x="416" y="946" type="line"/>
      <point x="456" y="1126"/>
      <point x="486" y="1264"/>
      <point x="522" y="1426" type="curve"/>
      <point x="448" y="1426" type="line"/>
      <point x="416" y="1268"/>
      <point x="388" y="1124"/>
      <point x="352" y="946" type="curve"/>
      <point x="252" y="476" type="line"/>
      <point x="158" y="64" type="line"/>
      <point x="48" y="-90"/>
      <point x="-30" y="-200"/>
    </contour>
  </outline>
</glyph>
<glyph name="K" format="2">
  <advance width="1298"/>
  <unicode hex="004B"/>
  <anchor x="560" y="0" name="bottom"/>
  <anchor x="860" y="1426" name="top"/>
  <outline>
    <contour>
      <point x="1026" y="0" type="curve"/>
      <point x="1128" y="0" type="line"/>
      <point x="1018" y="118"/>
      <point x="844" y="304"/>
      <point x="714" y="444" type="curve"/>
      <point x="438" y="748" type="line"/>
      <point x="442" y="712" type="line"/>
      <point x="798" y="986" type="line"/>
      <point x="988" y="1128"/>
      <point x="1180" y="1272"/>
      <point x="1386" y="1426" type="curve"/>
      <point x="1266" y="1426" type="line"/>
      <point x="1058" y="1266"/>
      <point x="918" y="1156"/>
      <point x="758" y="1032" type="curve"/>
      <point x="410" y="766" type="line"/>
      <point x="326" y="766" type="line"/>
      <point x="312" y="704" type="line"/>
      <point x="394" y="704" type="line"/>
      <point x="676" y="392" type="line"/>
      <point x="782" y="272"/>
      <point x="894" y="148"/>
    </contour>
    <contour>
      <point x="112" y="0" type="curve"/>
      <point x="186" y="0" type="line"/>
      <point x="218" y="162"/>
      <point x="244" y="296"/>
      <point x="280" y="476" type="curve"/>
      <point x="380" y="946" type="line"/>
      <point x="420" y="1126"/>
      <point x="450" y="1264"/>
      <point x="486" y="1426" type="curve"/>
      <point x="412" y="1426" type="line"/>
      <point x="380" y="1268"/>
      <point x="352" y="1124"/>
      <point x="316" y="946" type="curve"/>
      <point x="216" y="476" type="line"/>
      <point x="178" y="302"/>
      <point x="148" y="166"/>
    </contour>
  </outline>
</glyph>
<glyph name="T" format="2">
  <advance width="1274"/>
  <unicode hex="0054"/>
  <anchor x="536" y="0" name="bottom"/>
  <anchor x="686" y="714" name="center"/>
  <anchor x="836" y="1426" name="top"/>
  <outline>
    <contour>
      <point x="500" y="0" type="curve"/>
      <point x="574" y="0" type="line"/>
      <point x="606" y="162"/>
      <point x="632" y="296"/>
      <point x="668" y="476" type="curve"/>
      <point x="768" y="944" type="line"/>
      <point x="808" y="1124"/>
      <point x="838" y="1258"/>
      <point x="874" y="1420" type="curve"/>
      <point x="874" y="1426" type="line"/>
      <point x="800" y="1426" type="line"/>
      <point x="798" y="1420" type="line"/>
      <point x="766" y="1258"/>
      <point x="740" y="1122"/>
      <point x="704" y="944" type="curve"/>
      <point x="604" y="476" type="line"/>
      <point x="566" y="302"/>
      <point x="536" y="166"/>
    </contour>
    <contour>
      <point x="254" y="1356" type="line"/>
      <point x="372" y="1358"/>
      <point x="496" y="1362"/>
      <point x="666" y="1364" type="curve"/>
      <point x="800" y="1364" type="line"/>
      <point x="814" y="1426" type="line"/>
      <point x="268" y="1426" type="line"/>
    </contour>
    <contour>
      <point x="842" y="1364" type="line"/>
      <point x="976" y="1364" type="line"/>
      <point x="1146" y="1362"/>
      <point x="1270" y="1358"/>
      <point x="1388" y="1356" type="curve"/>
      <point x="1402" y="1426" type="line"/>
      <point x="856" y="1426" type="line"/>
    </contour>
  </outline>
</glyph>
<glyph name="U" format="2">
  <advance width="1464"/>
  <unicode hex="0055"/>
  <anchor x="630" y="0" name="bottom"/>
  <anchor x="834" y="0" name="ogonek"/>
  <anchor x="930" y="1426" name="top"/>
  <anchor x="1574" y="1426" name="topright"/>
  <outline>
    <contour>
      <point x="664" y="-18" type="curve" smooth="yes"/>
      <point x="1042" y="-18"/>
      <point x="1204" y="198"/>
      <point x="1262" y="472" type="curve" smooth="yes"/>
      <point x="1282" y="568"/>
      <point x="1322" y="756"/>
      <point x="1362" y="946" type="curve"/>
      <point x="1402" y="1126"/>
      <point x="1432" y="1264"/>
      <point x="1468" y="1426" type="curve"/>
      <point x="1394" y="1426" type="line"/>
      <point x="1362" y="1268"/>
      <point x="1334" y="1124"/>
      <point x="1298" y="946" type="curve"/>
      <point x="1200" y="494" type="line" smooth="yes"/>
      <point x="1144" y="232"/>
      <point x="1020" y="50"/>
      <point x="666" y="48" type="curve"/>
      <point x="306" y="50"/>
      <point x="214" y="282"/>
      <point x="276" y="576" type="curve" smooth="yes"/>
      <point x="356" y="946" type="line"/>
      <point x="396" y="1126"/>
      <point x="426" y="1264"/>
      <point x="462" y="1426" type="curve"/>
      <point x="388" y="1426" type="line"/>
      <point x="356" y="1268"/>
      <point x="328" y="1124"/>
      <point x="292" y="946" type="curve"/>
      <point x="260" y="794"/>
      <point x="226" y="654"/>
      <point x="210" y="576" type="curve" smooth="yes"/>
      <point x="142" y="260"/>
      <point x="278" y="-18"/>
    </contour>
  </outline>
</glyph>
<glyph name="V" format="2">
  <advance width="1336"/>
  <unicode hex="0056"/>
  <anchor x="566" y="0" name="bottom"/>
  <anchor x="866" y="1426" name="top"/>
  <outline>
    <contour>
      <point x="518" y="0" type="curve"/>
      <point x="626" y="0" type="line"/>
      <point x="710" y="144"/>
      <point x="814" y="324"/>
      <point x="890" y="454" type="curve"/>
      <point x="1156" y="900" type="line"/>
      <point x="1250" y="1054"/>
      <point x="1370" y="1252"/>
      <point x="1476" y="1426" type="curve"/>
      <point x="1388" y="1426" type="line"/>
      <point x="1256" y="1200"/>
      <point x="1104" y="942"/>
      <point x="972" y="716" type="curve"/>
      <point x="588" y="72" type="line"/>
      <point x="576" y="72" type="line"/>
      <point x="458" y="712" type="line"/>
      <point x="418" y="938"/>
      <point x="372" y="1200"/>
      <point x="332" y="1426" type="curve"/>
      <point x="254" y="1426" type="line"/>
      <point x="288" y="1254"/>
      <point x="328" y="1048"/>
      <point x="358" y="898" type="curve"/>
      <point x="440" y="454" type="line"/>
      <point x="464" y="318"/>
      <point x="494" y="142"/>
    </contour>
  </outline>
</glyph>
<glyph name="W" format="2">
  <advance width="1998"/>
  <unicode hex="0057"/>
  <anchor x="894" y="0" name="bottom"/>
  <anchor x="1194" y="1426" name="top"/>
  <outline>
    <contour>
      <point x="390" y="0" type="curve"/>
      <point x="508" y="0" type="line"/>
      <point x="616" y="220"/>
      <point x="744" y="486"/>
      <point x="852" y="706" type="curve"/>
      <point x="1170" y="1344" type="line"/>
      <point x="1182" y="1344" type="line"/>
      <point x="1236" y="706" type="line"/>
      <point x="1252" y="486"/>
      <point x="1272" y="220"/>
      <point x="1290" y="0" type="curve"/>
      <point x="1410" y="0" type="line"/>
      <point x="1476" y="134"/>
      <point x="1560" y="306"/>
      <point x="1632" y="452" type="curve"/>
      <point x="1862" y="900" type="line"/>
      <point x="1948" y="1060"/>
      <point x="2050" y="1254"/>
      <point x="2142" y="1426" type="curve"/>
      <point x="2054" y="1426" type="line"/>
      <point x="1940" y="1202"/>
      <point x="1806" y="934"/>
      <point x="1694" y="714" type="curve"/>
      <point x="1366" y="74" type="line"/>
      <point x="1354" y="74" type="line"/>
      <point x="1300" y="714" type="line"/>
      <point x="1282" y="944"/>
      <point x="1262" y="1198"/>
      <point x="1244" y="1426" type="curve"/>
      <point x="1134" y="1426" type="line"/>
      <point x="1024" y="1204"/>
      <point x="892" y="934"/>
      <point x="786" y="716" type="curve"/>
      <point x="466" y="74" type="line"/>
      <point x="454" y="74" type="line"/>
      <point x="394" y="700" type="line"/>
      <point x="374" y="928"/>
      <point x="352" y="1198"/>
      <point x="332" y="1426" type="curve"/>
      <point x="252" y="1426" type="line"/>
      <point x="270" y="1258"/>
      <point x="294" y="1052"/>
      <point x="312" y="890" type="curve"/>
      <point x="354" y="450" type="line"/>
      <point x="366" y="308"/>
      <point x="380" y="142"/>
    </contour>
  </outline>
</glyph>
<glyph name="bracketleft" format="2">
  <advance width="690"/>
  <unicode hex="005B"/>
  <outline>
    <contour>
      <point x="68" y="-224" type="curve"/>
      <point x="140" y="-224" type="line"/>
      <point x="140" y="-218" type="line"/>
      <point x="172" y="-56"/>
      <point x="200" y="86"/>
      <point x="234" y="260" type="curve"/>
      <point x="398" y="1038" type="line"/>
      <point x="436" y="1212"/>
      <point x="468" y="1352"/>
      <point x="504" y="1514" type="curve"/>
      <point x="506" y="1520" type="line"/>
      <point x="434" y="1520" type="line"/>
      <point x="402" y="1358"/>
      <point x="372" y="1218"/>
      <point x="338" y="1044" type="curve"/>
      <point x="172" y="252" type="line"/>
      <point x="132" y="78"/>
      <point x="104" y="-62"/>
    </contour>
    <contour>
      <point x="122" y="-224" type="line"/>
      <point x="518" y="-224" type="line"/>
      <point x="530" y="-162" type="line"/>
      <point x="432" y="-162"/>
      <point x="326" y="-164"/>
      <point x="208" y="-164" type="curve"/>
      <point x="134" y="-164" type="line"/>
    </contour>
    <contour>
      <point x="476" y="1460" type="line"/>
      <point x="544" y="1460" type="line"/>
      <point x="684" y="1460"/>
      <point x="782" y="1458"/>
      <point x="872" y="1458" type="curve"/>
      <point x="886" y="1520" type="line"/>
      <point x="488" y="1520" type="line"/>
    </contour>
  </outline>
</glyph>
<glyph name="c" format="2">
  <advance width="1004"/>
  <unicode hex="0063"/>
  <anchor x="476" y="0" name="bottom"/>
  <anchor x="666" y="988" name="top"/>
  <outline>
    <contour>
      <point x="554" y="-18" type="curve" smooth="yes"/>
      <point x="626" y="-18"/>
      <point x="752" y="24"/>
      <point x="806" y="46" type="curve"/>
      <point x="806" y="124" type="line"/>
      <point x="732" y="86"/>
      <point x="608" y="48"/>
      <point x="554" y="46" type="curve"/>
      <point x="280" y="50"/>
      <point x="130" y="232"/>
      <point x="194" y="534" type="curve" smooth="yes"/>
      <point x="250" y="796"/>
      <point x="432" y="934"/>
      <point x="656" y="944" type="curve"/>
      <point x="692" y="944"/>
      <point x="826" y="902"/>
      <point x="954" y="848" type="curve"/>
      <point x="976" y="916" type="line"/>
      <point x="896" y="946"/>
      <point x="724" y="1008"/>
      <point x="658" y="1008" type="curve" smooth="yes"/>
      <point x="398" y="1008"/>
      <point x="188" y="818"/>
      <point x="132" y="546" type="curve" smooth="yes"/>
      <point x="66" y="222"/>
      <point x="232" y="-18"/>
    </contour>
  </outline>
</glyph>
<glyph name="f" format="2">
  <advance width="766"/>
  <unicode hex="0066"/>
  <outline>
    <contour>
      <point x="154" y="0" type="curve"/>
      <point x="224" y="0" type="line"/>
      <point x="254" y="150"/>
      <point x="282" y="280"/>
      <point x="314" y="442" type="curve"/>
      <point x="424" y="960" type="line"/>
      <point x="430" y="988" type="line"/>
      <point x="436" y="1014"/>
      <point x="452" y="1098"/>
      <point x="464" y="1152" type="curve" smooth="yes"/>
      <point x="502" y="1330"/>
      <point x="580" y="1424"/>
      <point x="766" y="1424" type="curve" smooth="yes"/>
      <point x="782" y="1424"/>
      <point x="864" y="1404"/>
      <point x="930" y="1386" type="curve"/>
      <point x="952" y="1454" type="line"/>
      <point x="884" y="1470"/>
      <point x="786" y="1488"/>
      <point x="766" y="1488" type="curve" smooth="yes"/>
      <point x="586" y="1488"/>
      <point x="456" y="1402"/>
      <point x="406" y="1162" type="curve" smooth="yes"/>
      <point x="348" y="886"/>
      <point x="314" y="734"/>
      <point x="274" y="542" type="curve"/>
      <point x="254" y="442" type="line"/>
      <point x="216" y="280"/>
      <point x="188" y="150"/>
    </contour>
    <contour>
      <point x="148" y="926" type="line"/>
      <point x="374" y="936" type="line"/>
      <point x="390" y="936" type="line"/>
      <point x="526" y="934"/>
      <point x="662" y="930"/>
      <point x="800" y="926" type="curve"/>
      <point x="814" y="988" type="line"/>
      <point x="162" y="988" type="line"/>
    </contour>
  </outline>
</glyph>
<glyph name="h" format="2">
  <advance width="1136"/>
  <unicode hex="0068"/>
  <guideline x="102" y="731" angle="15.2551"/>
  <anchor x="474" y="0" name="bottom"/>
  <anchor x="646" y="818" name="center"/>
  <anchor x="744" y="1446" name="top"/>
  <outline>
    <contour>
      <point x="96" y="0" type="curve"/>
      <point x="166" y="0" type="line"/>
      <point x="196" y="150"/>
      <point x="222" y="280"/>
      <point x="256" y="442" type="curve"/>
      <point x="314" y="708" type="line"/>
      <point x="458" y="842"/>
      <point x="628" y="944"/>
      <point x="722" y="944" type="curve" smooth="yes"/>
      <point x="916" y="944"/>
      <point x="968" y="832"/>
      <point x="924" y="626" type="curve"/>
      <point x="886" y="442" type="line"/>
      <point x="848" y="280"/>
      <point x="820" y="150"/>
      <point x="786" y="0" type="curve"/>
      <point x="856" y="0" type="line"/>
      <point x="886" y="150"/>
      <point x="912" y="280"/>
      <point x="946" y="442" type="curve"/>
      <point x="962" y="518"/>
      <point x="974" y="568"/>
      <point x="986" y="622" type="curve" smooth="yes"/>
      <point x="1040" y="866"/>
      <point x="948" y="1008"/>
      <point x="726" y="1008" type="curve" smooth="yes"/>
      <point x="606" y="1008"/>
      <point x="438" y="890"/>
      <point x="346" y="812" type="curve"/>
      <point x="336" y="812" type="line"/>
      <point x="372" y="988" type="line"/>
      <point x="410" y="1158"/>
      <point x="446" y="1316"/>
      <point x="486" y="1480" type="curve"/>
      <point x="402" y="1458" type="line"/>
      <point x="374" y="1314"/>
      <point x="344" y="1158"/>
      <point x="312" y="988" type="curve"/>
      <point x="196" y="442" type="line"/>
      <point x="158" y="280"/>
      <point x="130" y="150"/>
    </contour>
  </outline>
</glyph>
<glyph name="k" format="2">
  <advance width="1032"/>
  <unicode hex="006B"/>
  <anchor x="432" y="0" name="bottom"/>
  <anchor x="736" y="1446" name="top"/>
  <outline>
    <contour>
      <point x="780" y="0" type="curve"/>
      <point x="884" y="0" type="line"/>
      <point x="764" y="114"/>
      <point x="644" y="226"/>
      <point x="524" y="340" type="curve"/>
      <point x="338" y="518" type="line"/>
      <point x="348" y="480" type="line"/>
      <point x="574" y="646" type="line"/>
      <point x="732" y="760"/>
      <point x="892" y="874"/>
      <point x="1054" y="988" type="curve"/>
      <point x="938" y="988" type="line"/>
      <point x="806" y="890"/>
      <point x="672" y="790"/>
      <point x="540" y="692" type="curve"/>
      <point x="322" y="532" type="line"/>
      <point x="262" y="532" type="line"/>
      <point x="250" y="476" type="line"/>
      <point x="298" y="476" type="line"/>
      <point x="488" y="294" type="line"/>
      <point x="586" y="196"/>
      <point x="684" y="98"/>
    </contour>
    <contour>
      <point x="96" y="0" type="curve"/>
      <point x="166" y="0" type="line"/>
      <point x="196" y="150"/>
      <point x="222" y="280"/>
      <point x="256" y="442" type="curve"/>
      <point x="372" y="988" type="line"/>
      <point x="410" y="1158"/>
      <point x="446" y="1316"/>
      <point x="486" y="1480" type="curve"/>
      <point x="402" y="1458" type="line"/>
      <point x="374" y="1314"/>
      <point x="344" y="1158"/>
      <point x="312" y="988" type="curve"/>
      <point x="196" y="442" type="line"/>
      <point x="158" y="280"/>
      <point x="130" y="150"/>
    </contour>
  </outline>
</glyph>
<glyph name="r" format="2">
  <advance width="788"/>
  <unicode hex="0072"/>
  <anchor x="136" y="0" name="bottom"/>
  <anchor x="568" y="988" name="top"/>
  <outline>
    <contour>
      <point x="108" y="0" type="curve"/>
      <point x="178" y="0" type="line"/>
      <point x="208" y="150"/>
      <point x="234" y="280"/>
      <point x="268" y="442" type="curve"/>
      <point x="320" y="676" type="line"/>
      <point x="494" y="852"/>
      <point x="626" y="944"/>
      <point x="690" y="944" type="curve" smooth="yes"/>
      <point x="706" y="944"/>
      <point x="762" y="930"/>
      <point x="812" y="918" type="curve"/>
      <point x="832" y="986" type="line"/>
      <point x="782" y="1000"/>
      <point x="716" y="1008"/>
      <point x="694" y="1008" type="curve" smooth="yes"/>
      <point x="616" y="1008"/>
      <point x="494" y="928"/>
      <point x="346" y="782" type="curve"/>
      <point x="336" y="782" type="line"/>
      <point x="372" y="994" type="line"/>
      <point x="306" y="988" type="line"/>
      <point x="290" y="886"/>
      <point x="276" y="780"/>
      <point x="260" y="684" type="curve"/>
      <point x="208" y="442" type="line"/>
      <point x="170" y="280"/>
      <point x="142" y="150"/>
    </contour>
  </outline>
</glyph>
<glyph name="t" format="2">
  <advance width="800"/>
  <unicode hex="0074"/>
  <anchor x="370" y="0" name="bottom"/>
  <anchor x="410" y="494" name="center"/>
  <anchor x="548" y="1248" name="top"/>
  <anchor x="534" y="988" name="topright"/>
  <outline>
    <contour>
      <point x="462" y="-18" type="curve" smooth="yes"/>
      <point x="508" y="-18"/>
      <point x="584" y="10"/>
      <point x="638" y="30" type="curve"/>
      <point x="640" y="108" type="line"/>
      <point x="570" y="74"/>
      <point x="494" y="46"/>
      <point x="464" y="46" type="curve" smooth="yes"/>
      <point x="326" y="46"/>
      <point x="250" y="120"/>
      <point x="292" y="314" type="curve" smooth="yes"/>
      <point x="430" y="960" type="line"/>
      <point x="460" y="1100"/>
      <point x="478" y="1188"/>
      <point x="508" y="1330" type="curve"/>
      <point x="444" y="1308" type="line"/>
      <point x="418" y="1188"/>
      <point x="396" y="1084"/>
      <point x="370" y="960" type="curve"/>
      <point x="342" y="828"/>
      <point x="290" y="596"/>
      <point x="232" y="322" type="curve" smooth="yes"/>
      <point x="186" y="108"/>
      <point x="280" y="-18"/>
    </contour>
    <contour>
      <point x="148" y="926" type="line"/>
      <point x="374" y="936" type="line"/>
      <point x="390" y="936" type="line"/>
      <point x="526" y="934"/>
      <point x="672" y="930"/>
      <point x="810" y="926" type="curve"/>
      <point x="824" y="988" type="line"/>
      <point x="162" y="988" type="line"/>
    </contour>
  </outline>
</glyph>
<glyph name="u" format="2">
  <advance width="1098"/>
  <unicode hex="0075"/>
  <anchor x="446" y="0" name="bottom"/>
  <anchor x="818" y="0" name="ogonek"/>
  <anchor x="654" y="988" name="top"/>
  <anchor x="1140" y="988" name="topright"/>
  <outline>
    <contour>
      <point x="412" y="-18" type="curve" smooth="yes"/>
      <point x="520" y="-18"/>
      <point x="694" y="102"/>
      <point x="786" y="180" type="curve"/>
      <point x="796" y="180" type="line"/>
      <point x="756" y="0" type="line"/>
      <point x="818" y="0" type="line"/>
      <point x="848" y="150"/>
      <point x="874" y="280"/>
      <point x="906" y="442" type="curve"/>
      <point x="928" y="542" type="line"/>
      <point x="964" y="704"/>
      <point x="996" y="838"/>
      <point x="1030" y="988" type="curve"/>
      <point x="958" y="988" type="line"/>
      <point x="928" y="838"/>
      <point x="900" y="704"/>
      <point x="868" y="542" type="curve"/>
      <point x="812" y="282" type="line"/>
      <point x="668" y="148"/>
      <point x="498" y="46"/>
      <point x="416" y="46" type="curve" smooth="yes"/>
      <point x="222" y="46"/>
      <point x="170" y="158"/>
      <point x="214" y="364" type="curve"/>
      <point x="250" y="542" type="line"/>
      <point x="286" y="704"/>
      <point x="320" y="842"/>
      <point x="354" y="992" type="curve"/>
      <point x="280" y="988" type="line"/>
      <point x="250" y="838"/>
      <point x="222" y="704"/>
      <point x="190" y="542" type="curve"/>
      <point x="174" y="472"/>
      <point x="164" y="422"/>
      <point x="152" y="368" type="curve" smooth="yes"/>
      <point x="98" y="124"/>
      <point x="190" y="-18"/>
    </contour>
  </outline>
</glyph>
<glyph name="w" format="2">
  <advance width="1570"/>
  <unicode hex="0077"/>
  <anchor x="684" y="0" name="bottom"/>
  <anchor x="892" y="988" name="top"/>
  <outline>
    <contour>
      <point x="300" y="0" type="curve"/>
      <point x="390" y="0" type="line"/>
      <point x="484" y="180"/>
      <point x="586" y="372"/>
      <point x="680" y="550" type="curve"/>
      <point x="862" y="892" type="line"/>
      <point x="874" y="892" type="line"/>
      <point x="914" y="554" type="line"/>
      <point x="932" y="386"/>
      <point x="956" y="170"/>
      <point x="974" y="0" type="curve"/>
      <point x="1070" y="0" type="line"/>
      <point x="1134" y="120"/>
      <point x="1200" y="246"/>
      <point x="1270" y="378" type="curve"/>
      <point x="1364" y="552" type="line"/>
      <point x="1444" y="696"/>
      <point x="1524" y="840"/>
      <point x="1608" y="988" type="curve"/>
      <point x="1526" y="988" type="line"/>
      <point x="1438" y="822"/>
      <point x="1328" y="614"/>
      <point x="1232" y="432" type="curve"/>
      <point x="1038" y="72" type="line"/>
      <point x="1028" y="72" type="line"/>
      <point x="986" y="430" type="line"/>
      <point x="966" y="612"/>
      <point x="944" y="810"/>
      <point x="924" y="988" type="curve"/>
      <point x="846" y="988" type="line"/>
      <point x="746" y="798"/>
      <point x="648" y="612"/>
      <point x="550" y="426" type="curve"/>
      <point x="362" y="72" type="line"/>
      <point x="352" y="72" type="line"/>
      <point x="308" y="418" type="line"/>
      <point x="288" y="600"/>
      <point x="264" y="806"/>
      <point x="242" y="992" type="curve"/>
      <point x="170" y="988" type="line"/>
      <point x="192" y="838"/>
      <point x="212" y="698"/>
      <point x="232" y="552" type="curve"/>
      <point x="256" y="374" type="line"/>
      <point x="272" y="244"/>
      <point x="286" y="124"/>
    </contour>
  </outline>
</glyph>
<glyph name="y" format="2">
  <advance width="1000"/>
  <unicode hex="0079"/>
  <anchor x="598" y="0" name="bottom"/>
  <anchor x="606" y="988" name="top"/>
  <outline>
    <contour>
      <point x="116" y="-388" type="curve"/>
      <point x="198" y="-384" type="line"/>
      <point x="284" y="-242"/>
      <point x="382" y="-78"/>
      <point x="536" y="176" type="curve"/>
      <point x="706" y="454" type="line"/>
      <point x="860" y="704"/>
      <point x="934" y="824"/>
      <point x="1036" y="988" type="curve"/>
      <point x="954" y="988" type="line"/>
      <point x="844" y="802"/>
      <point x="736" y="622"/>
      <point x="622" y="430" type="curve"/>
      <point x="402" y="70" type="line"/>
      <point x="390" y="70" type="line"/>
      <point x="332" y="428" type="line"/>
      <point x="302" y="620"/>
      <point x="272" y="800"/>
      <point x="242" y="992" type="curve"/>
      <point x="172" y="988" type="line"/>
      <point x="198" y="846"/>
      <point x="226" y="694"/>
      <point x="252" y="552" type="curve"/>
      <point x="282" y="372" type="line"/>
      <point x="304" y="236"/>
      <point x="326" y="98"/>
      <point x="348" y="-38" type="curve"/>
      <point x="352" y="-8" type="line"/>
      <point x="274" y="-134"/>
      <point x="194" y="-262"/>
    </contour>
  </outline>
</glyph>
<glyph name="currency" format="2">
  <advance width="1200"/>
  <unicode hex="00A4"/>
  <outline>
    <contour>
      <point x="602" y="260" type="curve" smooth="yes"/>
      <point x="810" y="260"/>
      <point x="952" y="370"/>
      <point x="996" y="596" type="curve" smooth="yes"/>
      <point x="1042" y="828"/>
      <point x="884" y="1022"/>
      <point x="658" y="1022" type="curve" smooth="yes"/>
      <point x="464" y="1022"/>
      <point x="304" y="914"/>
      <point x="260" y="688" type="curve" smooth="yes"/>
      <point x="214" y="454"/>
      <point x="368" y="260"/>
    </contour>
    <contour>
      <point x="152" y="148" type="line"/>
      <point x="236" y="228"/>
      <point x="332" y="320"/>
      <point x="382" y="368" type="curve"/>
      <point x="342" y="412" type="line"/>
      <point x="290" y="366"/>
      <point x="190" y="276"/>
      <point x="106" y="198" type="curve"/>
    </contour>
    <contour>
      <point x="606" y="324" type="curve"/>
      <point x="412" y="328"/>
      <point x="284" y="486"/>
      <point x="322" y="680" type="curve" smooth="yes"/>
      <point x="358" y="868"/>
      <point x="492" y="954"/>
      <point x="654" y="958" type="curve"/>
      <point x="842" y="954"/>
      <point x="972" y="796"/>
      <point x="934" y="604" type="curve" smooth="yes"/>
      <point x="896" y="414"/>
      <point x="780" y="328"/>
    </contour>
    <contour>
      <point x="396" y="852" type="curve"/>
      <point x="438" y="892" type="line"/>
      <point x="392" y="944"/>
      <point x="302" y="1044"/>
      <point x="224" y="1128" type="curve"/>
      <point x="176" y="1082" type="line"/>
      <point x="254" y="1000"/>
      <point x="346" y="902"/>
    </contour>
    <contour>
      <point x="1040" y="156" type="curve"/>
      <point x="1088" y="202" type="line"/>
      <point x="1010" y="284"/>
      <point x="918" y="382"/>
      <point x="868" y="432" type="curve"/>
      <point x="826" y="392" type="line"/>
      <point x="872" y="340"/>
      <point x="962" y="240"/>
    </contour>
    <contour>
      <point x="922" y="872" type="line"/>
      <point x="974" y="918"/>
      <point x="1074" y="1008"/>
      <point x="1158" y="1086" type="curve"/>
      <point x="1112" y="1136" type="line"/>
      <point x="1028" y="1056"/>
      <point x="932" y="964"/>
      <point x="882" y="916" type="curve"/>
    </contour>
  </outline>
</glyph>
<glyph name="yen" format="2">
  <advance width="1206"/>
  <unicode hex="00A5"/>
  <outline>
    <contour>
      <point x="590" y="576" type="line"/>
      <point x="648" y="576" type="line"/>
      <point x="1056" y="1054" type="line"/>
      <point x="1152" y="1164"/>
      <point x="1244" y="1272"/>
      <point x="1328" y="1368" type="curve"/>
      <point x="1236" y="1368" type="line"/>
      <point x="1068" y="1168"/>
      <point x="992" y="1076"/>
      <point x="858" y="916" type="curve"/>
      <point x="634" y="652" type="line"/>
      <point x="622" y="652" type="line"/>
      <point x="514" y="908" type="line"/>
      <point x="448" y="1070"/>
      <point x="408" y="1164"/>
      <point x="324" y="1368" type="curve"/>
      <point x="246" y="1368" type="line"/>
      <point x="318" y="1208"/>
      <point x="344" y="1148"/>
      <point x="386" y="1054" type="curve"/>
    </contour>
    <contour>
      <point x="462" y="0" type="curve"/>
      <point x="534" y="0" type="line"/>
      <point x="566" y="158"/>
      <point x="592" y="288"/>
      <point x="626" y="456" type="curve"/>
      <point x="662" y="626" type="line"/>
      <point x="600" y="626" type="line"/>
      <point x="564" y="456" type="line"/>
      <point x="526" y="288"/>
      <point x="498" y="160"/>
    </contour>
    <contour>
      <point x="136" y="312" type="line"/>
      <point x="252" y="314"/>
      <point x="386" y="316"/>
      <point x="456" y="316" type="curve"/>
      <point x="676" y="316" type="line"/>
      <point x="746" y="316"/>
      <point x="880" y="314"/>
      <point x="996" y="312" type="curve"/>
      <point x="1008" y="376" type="line"/>
      <point x="892" y="374"/>
      <point x="758" y="372"/>
      <point x="688" y="372" type="curve"/>
      <point x="468" y="372" type="line"/>
      <point x="398" y="372"/>
      <point x="264" y="374"/>
      <point x="148" y="376" type="curve"/>
    </contour>
    <contour>
      <point x="190" y="572" type="line"/>
      <point x="308" y="574"/>
      <point x="442" y="576"/>
      <point x="512" y="576" type="curve"/>
      <point x="732" y="576" type="line"/>
      <point x="802" y="576"/>
      <point x="936" y="574"/>
      <point x="1050" y="572" type="curve"/>
      <point x="1064" y="636" type="line"/>
      <point x="948" y="634"/>
      <point x="814" y="632"/>
      <point x="744" y="632" type="curve"/>
      <point x="524" y="632" type="line"/>
      <point x="454" y="632"/>
      <point x="320" y="634"/>
      <point x="204" y="636" type="curve"/>
    </contour>
  </outline>
</glyph>
<glyph name="brokenbar" format="2">
  <advance width="500"/>
  <unicode hex="00A6"/>
  <outline>
    <contour>
      <point x="272" y="732" type="line"/>
      <point x="332" y="732" type="line"/>
      <point x="370" y="914" type="line"/>
      <point x="386" y="990"/>
      <point x="454" y="1294"/>
      <point x="514" y="1572" type="curve"/>
      <point x="446" y="1572" type="line"/>
      <point x="388" y="1294"/>
      <point x="326" y="990"/>
      <point x="310" y="914" type="curve"/>
    </contour>
    <contour>
      <point x="46" y="-308" type="curve"/>
      <point x="114" y="-308" type="line"/>
      <point x="172" y="-32"/>
      <point x="234" y="274"/>
      <point x="250" y="350" type="curve"/>
      <point x="288" y="532" type="line"/>
      <point x="228" y="532" type="line"/>
      <point x="190" y="350" type="line"/>
      <point x="174" y="274"/>
      <point x="106" y="-32"/>
    </contour>
  </outline>
</glyph>
<glyph name="registered" format="2">
  <advance width="1124"/>
  <unicode hex="00AE"/>
  <outline>
    <contour>
      <point x="676" y="532" type="curve" smooth="yes"/>
      <point x="970" y="532"/>
      <point x="1154" y="736"/>
      <point x="1154" y="1010" type="curve" smooth="yes"/>
      <point x="1154" y="1276"/>
      <point x="978" y="1488"/>
      <point x="674" y="1488" type="curve" smooth="yes"/>
      <point x="372" y="1488"/>
      <point x="190" y="1280"/>
      <point x="190" y="1010" type="curve" smooth="yes"/>
      <point x="190" y="750"/>
      <point x="358" y="532"/>
    </contour>
    <contour>
      <point x="484" y="736" type="curve"/>
      <point x="548" y="736" type="line"/>
      <point x="546" y="820"/>
      <point x="546" y="834"/>
      <point x="544" y="924" type="curve"/>
      <point x="544" y="1108" type="line"/>
      <point x="546" y="1196"/>
      <point x="546" y="1214"/>
      <point x="548" y="1298" type="curve"/>
      <point x="484" y="1306" type="line"/>
      <point x="486" y="1222"/>
      <point x="486" y="1204"/>
      <point x="488" y="1116" type="curve"/>
      <point x="488" y="924" type="line"/>
      <point x="486" y="834"/>
      <point x="486" y="820"/>
    </contour>
    <contour>
      <point x="676" y="592" type="curve"/>
      <point x="414" y="596"/>
      <point x="250" y="748"/>
      <point x="250" y="1010" type="curve" smooth="yes"/>
      <point x="250" y="1266"/>
      <point x="418" y="1424"/>
      <point x="674" y="1428" type="curve"/>
      <point x="930" y="1424"/>
      <point x="1092" y="1270"/>
      <point x="1092" y="1010" type="curve" smooth="yes"/>
      <point x="1092" y="752"/>
      <point x="930" y="596"/>
    </contour>
    <contour>
      <point x="838" y="736" type="curve"/>
      <point x="922" y="736" type="line"/>
      <point x="884" y="780"/>
      <point x="830" y="844"/>
      <point x="782" y="900" type="curve"/>
      <point x="690" y="1012" type="line"/>
      <point x="670" y="982" type="line"/>
      <point x="810" y="982"/>
      <point x="864" y="1058"/>
      <point x="864" y="1150" type="curve" smooth="yes"/>
      <point x="864" y="1262"/>
      <point x="786" y="1308"/>
      <point x="674" y="1308" type="curve"/>
      <point x="594" y="1308"/>
      <point x="530" y="1306"/>
      <point x="484" y="1306" type="curve"/>
      <point x="526" y="1252" type="line"/>
      <point x="672" y="1252" type="line" smooth="yes"/>
      <point x="722" y="1252"/>
      <point x="806" y="1248"/>
      <point x="806" y="1150" type="curve" smooth="yes"/>
      <point x="806" y="1058"/>
      <point x="742" y="1030"/>
      <point x="646" y="1030" type="curve" smooth="yes"/>
      <point x="534" y="1030" type="line"/>
      <point x="534" y="978" type="line"/>
      <point x="664" y="978" type="line"/>
      <point x="628" y="1002" type="line"/>
      <point x="732" y="874" type="line"/>
      <point x="766" y="830"/>
      <point x="798" y="788"/>
    </contour>
  </outline>
</glyph>
<glyph name="plusminus" format="2">
  <advance width="1120"/>
  <unicode hex="00B1"/>
  <outline>
    <contour>
      <point x="34" y="-4" type="line"/>
      <point x="150" y="-2"/>
      <point x="284" y="0"/>
      <point x="354" y="0" type="curve"/>
      <point x="554" y="0" type="line"/>
      <point x="624" y="0"/>
      <point x="758" y="-2"/>
      <point x="874" y="-4" type="curve"/>
      <point x="888" y="64" type="line"/>
      <point x="772" y="62"/>
      <point x="638" y="60"/>
      <point x="568" y="60" type="curve"/>
      <point x="368" y="60" type="line"/>
      <point x="298" y="60"/>
      <point x="164" y="62"/>
      <point x="48" y="64" type="curve"/>
    </contour>
    <contour>
      <point x="184" y="702" type="line"/>
      <point x="300" y="704"/>
      <point x="436" y="706"/>
      <point x="506" y="706" type="curve"/>
      <point x="706" y="706" type="line"/>
      <point x="776" y="706"/>
      <point x="908" y="704"/>
      <point x="1024" y="702" type="curve"/>
      <point x="1038" y="770" type="line"/>
      <point x="922" y="768"/>
      <point x="788" y="766"/>
      <point x="718" y="766" type="curve"/>
      <point x="518" y="766" type="line"/>
      <point x="448" y="766"/>
      <point x="314" y="768"/>
      <point x="198" y="770" type="curve"/>
    </contour>
    <contour>
      <point x="478" y="276" type="curve"/>
      <point x="548" y="276" type="line"/>
      <point x="572" y="396"/>
      <point x="598" y="526"/>
      <point x="612" y="596" type="curve"/>
      <point x="672" y="876" type="line"/>
      <point x="688" y="946"/>
      <point x="718" y="1080"/>
      <point x="744" y="1196" type="curve"/>
      <point x="674" y="1196" type="line"/>
      <point x="652" y="1082"/>
      <point x="624" y="944"/>
      <point x="610" y="876" type="curve"/>
      <point x="550" y="596" type="line"/>
      <point x="536" y="528"/>
      <point x="506" y="394"/>
    </contour>
  </outline>
</glyph>
<glyph name="AE" format="2">
  <advance width="1912"/>
  <unicode hex="00C6"/>
  <anchor x="878" y="0" name="bottom"/>
  <anchor x="1178" y="1426" name="top"/>
  <outline>
    <contour>
      <point x="-74" y="0" type="curve"/>
      <point x="26" y="0" type="line"/>
      <point x="166" y="178"/>
      <point x="324" y="380"/>
      <point x="458" y="552" type="curve"/>
      <point x="1104" y="1364" type="line"/>
      <point x="1134" y="1364" type="line"/>
      <point x="1188" y="1364" type="line"/>
      <point x="1202" y="1426" type="line"/>
      <point x="1064" y="1426" type="line"/>
      <point x="952" y="1282"/>
      <point x="844" y="1142"/>
      <point x="718" y="980" type="curve"/>
      <point x="322" y="484" type="line"/>
      <point x="198" y="332"/>
      <point x="50" y="152"/>
    </contour>
    <contour>
      <point x="308" y="406" type="line"/>
      <point x="966" y="406" type="line"/>
      <point x="978" y="466" type="line"/>
      <point x="320" y="466" type="line"/>
    </contour>
    <contour>
      <point x="842" y="0" type="curve"/>
      <point x="916" y="0" type="line"/>
      <point x="918" y="8" type="line"/>
      <point x="950" y="170"/>
      <point x="978" y="310"/>
      <point x="1012" y="482" type="curve"/>
      <point x="1110" y="946" type="line"/>
      <point x="1148" y="1116"/>
      <point x="1180" y="1260"/>
      <point x="1216" y="1420" type="curve"/>
      <point x="1216" y="1426" type="line"/>
      <point x="1142" y="1426" type="line"/>
      <point x="1110" y="1266"/>
      <point x="1082" y="1124"/>
      <point x="1046" y="944" type="curve"/>
      <point x="946" y="472" type="line"/>
      <point x="908" y="300"/>
      <point x="878" y="164"/>
    </contour>
    <contour>
      <point x="898" y="0" type="line"/>
      <point x="1682" y="0" type="line"/>
      <point x="1696" y="70" type="line"/>
      <point x="1556" y="68"/>
      <point x="1316" y="64"/>
      <point x="1192" y="62" type="curve"/>
      <point x="912" y="62" type="line"/>
    </contour>
    <contour>
      <point x="1044" y="694" type="line"/>
      <point x="1332" y="694" type="line"/>
      <point x="1440" y="694"/>
      <point x="1706" y="692"/>
      <point x="1784" y="692" type="curve"/>
      <point x="1798" y="762" type="line"/>
      <point x="1668" y="760"/>
      <point x="1518" y="758"/>
      <point x="1348" y="756" type="curve"/>
      <point x="1058" y="756" type="line"/>
    </contour>
    <contour>
      <point x="1184" y="1364" type="line"/>
      <point x="1456" y="1364" type="line"/>
      <point x="1598" y="1362"/>
      <point x="1830" y="1358"/>
      <point x="1970" y="1356" type="curve"/>
      <point x="1984" y="1426" type="line"/>
      <point x="1198" y="1426" type="line"/>
    </contour>
  </outline>
</glyph>
<glyph name="multiply" format="2">
  <advance width="1108"/>
  <unicode hex="00D7"/>
  <outline>
    <contour>
      <point x="852" y="186" type="curve"/>
      <point x="906" y="232" type="line"/>
      <point x="842" y="310"/>
      <point x="762" y="408"/>
      <point x="722" y="458" type="curve"/>
      <point x="482" y="764" type="line"/>
      <point x="440" y="820"/>
      <point x="372" y="910"/>
      <point x="306" y="998" type="curve"/>
      <point x="250" y="952" type="line"/>
      <point x="318" y="870"/>
      <point x="394" y="778"/>
      <point x="436" y="726" type="curve"/>
      <point x="676" y="420" type="line"/>
      <point x="714" y="370"/>
      <point x="790" y="268"/>
    </contour>
    <contour>
      <point x="134" y="182" type="line"/>
      <point x="232" y="266"/>
      <point x="346" y="362"/>
      <point x="402" y="410" type="curve"/>
      <point x="784" y="724" type="line"/>
      <point x="846" y="774"/>
      <point x="960" y="864"/>
      <point x="1060" y="944" type="curve"/>
      <point x="1014" y="998" type="line"/>
      <point x="916" y="914"/>
      <point x="808" y="822"/>
      <point x="746" y="770" type="curve"/>
      <point x="374" y="464" type="line"/>
      <point x="314" y="416"/>
      <point x="190" y="316"/>
      <point x="90" y="236" type="curve"/>
    </contour>
  </outline>
</glyph>
<glyph name="dcroat" format="2">
  <advance width="1144"/>
  <unicode hex="0111"/>
  <outline>
    <contour>
      <point x="666" y="1220" type="line"/>
      <point x="776" y="1222"/>
      <point x="860" y="1222"/>
      <point x="966" y="1224" type="curve"/>
      <point x="1050" y="1224" type="line"/>
      <point x="1152" y="1222"/>
      <point x="1236" y="1222"/>
      <point x="1346" y="1220" type="curve"/>
      <point x="1360" y="1280" type="line"/>
      <point x="1250" y="1280"/>
      <point x="1148" y="1280"/>
      <point x="1062" y="1280" type="curve"/>
      <point x="978" y="1280" type="line"/>
      <point x="874" y="1282"/>
      <point x="790" y="1282"/>
      <point x="680" y="1284" type="curve"/>
    </contour>
    <contour>
      <point x="504" y="-18" type="curve" smooth="yes"/>
      <point x="594" y="-18"/>
      <point x="740" y="60"/>
      <point x="834" y="158" type="curve"/>
      <point x="846" y="158" type="line"/>
      <point x="810" y="0" type="line"/>
      <point x="870" y="0" type="line"/>
      <point x="900" y="150"/>
      <point x="926" y="280"/>
      <point x="958" y="442" type="curve"/>
      <point x="1074" y="988" type="line"/>
      <point x="1112" y="1158"/>
      <point x="1148" y="1316"/>
      <point x="1188" y="1480" type="curve"/>
      <point x="1104" y="1458" type="line"/>
      <point x="1076" y="1314"/>
      <point x="1046" y="1158"/>
      <point x="1014" y="988" type="curve"/>
      <point x="986" y="850" type="line"/>
      <point x="974" y="850" type="line"/>
      <point x="890" y="920"/>
      <point x="730" y="1008"/>
      <point x="620" y="1008" type="curve" smooth="yes"/>
      <point x="376" y="1008"/>
      <point x="196" y="838"/>
      <point x="136" y="550" type="curve" smooth="yes"/>
      <point x="74" y="250"/>
      <point x="198" y="-18"/>
    </contour>
    <contour>
      <point x="506" y="46" type="curve"/>
      <point x="236" y="50"/>
      <point x="140" y="272"/>
      <point x="198" y="542" type="curve" smooth="yes"/>
      <point x="248" y="776"/>
      <point x="378" y="938"/>
      <point x="620" y="944" type="curve"/>
      <point x="716" y="942"/>
      <point x="868" y="862"/>
      <point x="968" y="780" type="curve"/>
      <point x="862" y="272" type="line"/>
      <point x="764" y="152"/>
      <point x="612" y="50"/>
    </contour>
  </outline>
</glyph>
<glyph name="hbar" format="2">
  <advance width="1136"/>
  <unicode hex="0127"/>
  <outline>
    <contour>
      <point x="140" y="1220" type="line"/>
      <point x="250" y="1222"/>
      <point x="332" y="1222"/>
      <point x="438" y="1224" type="curve"/>
      <point x="522" y="1224" type="line"/>
      <point x="624" y="1222"/>
      <point x="710" y="1222"/>
      <point x="820" y="1220" type="curve"/>
      <point x="834" y="1284" type="line"/>
      <point x="724" y="1282"/>
      <point x="638" y="1282"/>
      <point x="534" y="1280" type="curve"/>
      <point x="450" y="1280" type="line"/>
      <point x="346" y="1280"/>
      <point x="262" y="1280"/>
      <point x="152" y="1280" type="curve"/>
    </contour>
    <contour>
      <point x="96" y="0" type="curve"/>
      <point x="166" y="0" type="line"/>
      <point x="196" y="150"/>
      <point x="222" y="280"/>
      <point x="256" y="442" type="curve"/>
      <point x="314" y="708" type="line"/>
      <point x="458" y="842"/>
      <point x="628" y="944"/>
      <point x="722" y="944" type="curve" smooth="yes"/>
      <point x="916" y="944"/>
      <point x="968" y="832"/>
      <point x="924" y="626" type="curve"/>
      <point x="886" y="442" type="line"/>
      <point x="848" y="280"/>
      <point x="820" y="150"/>
      <point x="786" y="0" type="curve"/>
      <point x="856" y="0" type="line"/>
      <point x="886" y="150"/>
      <point x="912" y="280"/>
      <point x="946" y="442" type="curve"/>
      <point x="962" y="518"/>
      <point x="974" y="568"/>
      <point x="986" y="622" type="curve" smooth="yes"/>
      <point x="1040" y="866"/>
      <point x="948" y="1008"/>
      <point x="726" y="1008" type="curve" smooth="yes"/>
      <point x="606" y="1008"/>
      <point x="438" y="890"/>
      <point x="346" y="812" type="curve"/>
      <point x="336" y="812" type="line"/>
      <point x="372" y="988" type="line"/>
      <point x="410" y="1158"/>
      <point x="446" y="1316"/>
      <point x="486" y="1480" type="curve"/>
      <point x="402" y="1458" type="line"/>
      <point x="374" y="1314"/>
      <point x="344" y="1158"/>
      <point x="312" y="988" type="curve"/>
      <point x="196" y="442" type="line"/>
      <point x="158" y="280"/>
      <point x="130" y="150"/>
    </contour>
  </outline>
</glyph>
<glyph name="Lslash" format="2">
  <advance width="1132"/>
  <unicode hex="0141"/>
  <outline>
    <contour>
      <point x="112" y="0" type="curve"/>
      <point x="186" y="0" type="line"/>
      <point x="188" y="8" type="line"/>
      <point x="220" y="170"/>
      <point x="246" y="308"/>
      <point x="282" y="484" type="curve"/>
      <point x="380" y="946" type="line"/>
      <point x="420" y="1126"/>
      <point x="450" y="1264"/>
      <point x="486" y="1426" type="curve"/>
      <point x="412" y="1426" type="line"/>
      <point x="380" y="1268"/>
      <point x="352" y="1124"/>
      <point x="316" y="946" type="curve"/>
      <point x="216" y="476" type="line"/>
      <point x="178" y="302"/>
      <point x="148" y="166"/>
    </contour>
    <contour>
      <point x="20" y="584" type="line"/>
      <point x="150" y="622"/>
      <point x="270" y="656"/>
      <point x="378" y="688" type="curve"/>
      <point x="478" y="716" type="line"/>
      <point x="584" y="744"/>
      <point x="708" y="778"/>
      <point x="836" y="812" type="curve"/>
      <point x="830" y="880" type="line"/>
      <point x="700" y="842"/>
      <point x="582" y="808"/>
      <point x="472" y="776" type="curve"/>
      <point x="372" y="748" type="line"/>
      <point x="262" y="718"/>
      <point x="148" y="688"/>
      <point x="14" y="652" type="curve"/>
    </contour>
    <contour>
      <point x="168" y="0" type="line"/>
      <point x="952" y="0" type="line"/>
      <point x="966" y="70" type="line"/>
      <point x="798" y="68"/>
      <point x="656" y="66"/>
      <point x="410" y="62" type="curve"/>
      <point x="182" y="62" type="line"/>
    </contour>
  </outline>
</glyph>
<glyph name="lslash" format="2">
  <advance width="516"/>
  <unicode hex="0142"/>
  <outline>
    <contour>
      <point x="12" y="572" type="line"/>
      <point x="108" y="600"/>
      <point x="184" y="622"/>
      <point x="266" y="646" type="curve"/>
      <point x="330" y="664" type="line"/>
      <point x="400" y="682"/>
      <point x="490" y="706"/>
      <point x="584" y="730" type="curve"/>
      <point x="578" y="792" type="line"/>
      <point x="482" y="764"/>
      <point x="408" y="742"/>
      <point x="326" y="718" type="curve"/>
      <point x="262" y="700" type="line"/>
      <point x="186" y="680"/>
      <point x="100" y="658"/>
      <point x="8" y="634" type="curve"/>
    </contour>
    <contour>
      <point x="116" y="0" type="curve"/>
      <point x="186" y="0" type="line"/>
      <point x="216" y="150"/>
      <point x="244" y="280"/>
      <point x="276" y="442" type="curve"/>
      <point x="392" y="988" type="line"/>
      <point x="430" y="1158"/>
      <point x="466" y="1316"/>
      <point x="506" y="1480" type="curve"/>
      <point x="422" y="1458" type="line"/>
      <point x="394" y="1314"/>
      <point x="364" y="1158"/>
      <point x="332" y="988" type="curve"/>
      <point x="216" y="442" type="line"/>
      <point x="178" y="280"/>
      <point x="150" y="150"/>
    </contour>
  </outline>
</glyph>
<glyph name="eng" format="2">
  <advance width="1144"/>
  <unicode hex="014B"/>
  <outline>
    <contour>
      <point x="552" y="-388" type="curve"/>
      <point x="642" y="-384" type="line"/>
      <point x="686" y="-306"/>
      <point x="860" y="-30"/>
      <point x="868" y="10" type="curve" smooth="yes"/>
      <point x="898" y="156"/>
      <point x="926" y="286"/>
      <point x="980" y="542" type="curve"/>
      <point x="988" y="576"/>
      <point x="992" y="598"/>
      <point x="998" y="622" type="curve" smooth="yes"/>
      <point x="1052" y="866"/>
      <point x="960" y="1008"/>
      <point x="738" y="1008" type="curve" smooth="yes"/>
      <point x="618" y="1008"/>
      <point x="444" y="888"/>
      <point x="352" y="810" type="curve"/>
      <point x="342" y="810" type="line"/>
      <point x="374" y="994" type="line"/>
      <point x="306" y="988" type="line"/>
      <point x="290" y="886"/>
      <point x="276" y="780"/>
      <point x="260" y="684" type="curve"/>
      <point x="208" y="442" type="line"/>
      <point x="170" y="280"/>
      <point x="142" y="150"/>
      <point x="108" y="0" type="curve"/>
      <point x="178" y="0" type="line"/>
      <point x="208" y="150"/>
      <point x="234" y="280"/>
      <point x="268" y="442" type="curve"/>
      <point x="326" y="708" type="line"/>
      <point x="470" y="842"/>
      <point x="640" y="944"/>
      <point x="734" y="944" type="curve" smooth="yes"/>
      <point x="928" y="944"/>
      <point x="980" y="832"/>
      <point x="936" y="626" type="curve"/>
      <point x="898" y="442" type="line"/>
      <point x="800" y="0" type="line"/>
      <point x="708" y="-150"/>
      <point x="650" y="-240"/>
    </contour>
  </outline>
</glyph>
<glyph name="tbar" format="2">
  <advance width="800"/>
  <unicode hex="0167"/>
  <outline>
    <contour>
      <point x="84" y="540" type="line"/>
      <point x="186" y="542"/>
      <point x="278" y="544"/>
      <point x="354" y="544" type="curve"/>
      <point x="434" y="544" type="line"/>
      <point x="510" y="544"/>
      <point x="602" y="542"/>
      <point x="704" y="540" type="curve"/>
      <point x="718" y="604" type="line"/>
      <point x="614" y="602"/>
      <point x="522" y="600"/>
      <point x="446" y="600" type="curve"/>
      <point x="366" y="600" type="line"/>
      <point x="290" y="600"/>
      <point x="198" y="602"/>
      <point x="98" y="604" type="curve"/>
    </contour>
    <contour>
      <point x="462" y="-18" type="curve" smooth="yes"/>
      <point x="508" y="-18"/>
      <point x="584" y="10"/>
      <point x="638" y="30" type="curve"/>
      <point x="640" y="108" type="line"/>
      <point x="570" y="74"/>
      <point x="494" y="46"/>
      <point x="464" y="46" type="curve" smooth="yes"/>
      <point x="326" y="46"/>
      <point x="250" y="120"/>
      <point x="292" y="314" type="curve" smooth="yes"/>
      <point x="430" y="960" type="line"/>
      <point x="460" y="1100"/>
      <point x="478" y="1188"/>
      <point x="508" y="1330" type="curve"/>
      <point x="444" y="1308" type="line"/>
      <point x="418" y="1188"/>
      <point x="396" y="1084"/>
      <point x="370" y="960" type="curve"/>
      <point x="342" y="828"/>
      <point x="290" y="596"/>
      <point x="232" y="322" type="curve" smooth="yes"/>
      <point x="186" y="108"/>
      <point x="280" y="-18"/>
    </contour>
    <contour>
      <point x="148" y="926" type="line"/>
      <point x="374" y="936" type="line"/>
      <point x="390" y="936" type="line"/>
      <point x="526" y="934"/>
      <point x="672" y="930"/>
      <point x="810" y="926" type="curve"/>
      <point x="824" y="988" type="line"/>
      <point x="162" y="988" type="line"/>
    </contour>
  </outline>
</glyph>
<glyph name="florin" format="2">
  <advance width="1030"/>
  <unicode hex="0192"/>
  <outline>
    <contour>
      <point x="52" y="-238" type="curve" smooth="yes"/>
      <point x="216" y="-238"/>
      <point x="340" y="-160"/>
      <point x="402" y="108" type="curve" smooth="yes"/>
      <point x="448" y="306"/>
      <point x="490" y="504"/>
      <point x="536" y="702" type="curve"/>
      <point x="542" y="730" type="line"/>
      <point x="566" y="834"/>
      <point x="588" y="940"/>
      <point x="612" y="1044" type="curve" smooth="yes"/>
      <point x="654" y="1230"/>
      <point x="756" y="1328"/>
      <point x="950" y="1328" type="curve" smooth="yes"/>
      <point x="964" y="1328"/>
      <point x="1034" y="1314"/>
      <point x="1090" y="1302" type="curve"/>
      <point x="1110" y="1368" type="line"/>
      <point x="1054" y="1380"/>
      <point x="974" y="1392"/>
      <point x="958" y="1392" type="curve" smooth="yes"/>
      <point x="772" y="1392"/>
      <point x="612" y="1322"/>
      <point x="550" y="1046" type="curve" smooth="yes"/>
      <point x="480" y="734"/>
      <point x="410" y="424"/>
      <point x="340" y="112" type="curve" smooth="yes"/>
      <point x="298" y="-78"/>
      <point x="216" y="-174"/>
      <point x="62" y="-174" type="curve" smooth="yes"/>
      <point x="48" y="-174"/>
      <point x="-24" y="-160"/>
      <point x="-80" y="-148" type="curve"/>
      <point x="-100" y="-214" type="line"/>
      <point x="-44" y="-226"/>
      <point x="36" y="-238"/>
    </contour>
    <contour>
      <point x="164" y="676" type="line"/>
      <point x="282" y="678"/>
      <point x="416" y="680"/>
      <point x="486" y="680" type="curve"/>
      <point x="666" y="680" type="line"/>
      <point x="736" y="680"/>
      <point x="870" y="678"/>
      <point x="984" y="676" type="curve"/>
      <point x="998" y="740" type="line"/>
      <point x="882" y="738"/>
      <point x="748" y="736"/>
      <point x="678" y="736" type="curve"/>
      <point x="498" y="736" type="line"/>
      <point x="428" y="736"/>
      <point x="294" y="738"/>
      <point x="178" y="740" type="curve"/>
    </contour>
  </outline>
</glyph>
<glyph name="verticallinemod" format="2">
  <advance width="380"/>
  <unicode hex="02C8"/>
  <outline>
    <contour>
      <point x="342" y="1068" type="curve"/>
      <point x="282" y="1068" type="line"/>
      <point x="314" y="1228"/>
      <point x="348" y="1398"/>
      <point x="380" y="1558" type="curve"/>
      <point x="452" y="1558" type="line"/>
      <point x="416" y="1398"/>
      <point x="378" y="1228"/>
    </contour>
  </outline>
</glyph>
<glyph name="acutecomb" format="2">
  <unicode hex="0301"/>
  <anchor x="704" y="988" name="_top"/>
  <anchor x="778" y="1352" name="top"/>
  <outline>
    <contour>
      <point x="630" y="1172" type="curve"/>
      <point x="704" y="1174" type="line"/>
      <point x="836" y="1302"/>
      <point x="962" y="1428"/>
      <point x="1088" y="1558" type="curve"/>
      <point x="990" y="1556" type="line"/>
      <point x="870" y="1430"/>
      <point x="752" y="1302"/>
    </contour>
  </outline>
</glyph>
<glyph name="circumflexcomb" format="2">
  <unicode hex="0302"/>
  <anchor x="704" y="988" name="_top"/>
  <anchor x="808" y="1490" name="top"/>
  <outline>
    <contour>
      <point x="1010" y="1170" type="curve"/>
      <point x="1070" y="1172" type="line"/>
      <point x="1000" y="1298"/>
      <point x="930" y="1428"/>
      <point x="860" y="1554" type="curve"/>
      <point x="782" y="1554" type="line"/>
      <point x="854" y="1424"/>
      <point x="934" y="1298"/>
    </contour>
    <contour>
      <point x="410" y="1174" type="curve"/>
      <point x="484" y="1174" type="line"/>
      <point x="616" y="1302"/>
      <point x="738" y="1424"/>
      <point x="860" y="1554" type="curve"/>
      <point x="770" y="1554" type="line"/>
      <point x="650" y="1426"/>
      <point x="532" y="1304"/>
    </contour>
  </outline>
</glyph>
<glyph name="dotaccentcomb" format="2">
  <unicode hex="0307"/>
  <anchor x="302" y="988" name="_top"/>
  <anchor x="380" y="1370" name="top"/>
  <outline>
    <contour>
      <point x="362" y="1276" type="curve" smooth="yes"/>
      <point x="412" y="1276"/>
      <point x="440" y="1302"/>
      <point x="454" y="1366" type="curve" smooth="yes"/>
      <point x="466" y="1422"/>
      <point x="444" y="1450"/>
      <point x="396" y="1450" type="curve" smooth="yes"/>
      <point x="348" y="1450"/>
      <point x="320" y="1438"/>
      <point x="308" y="1388" type="curve" smooth="yes"/>
      <point x="290" y="1316"/>
      <point x="310" y="1276"/>
    </contour>
  </outline>
</glyph>
<glyph name="dieresiscomb" format="2">
  <unicode hex="0308"/>
  <anchor x="702" y="988" name="_top"/>
  <anchor x="774" y="1350" name="top"/>
  <outline>
    <contour>
      <point x="954" y="1256" type="curve" smooth="yes"/>
      <point x="1002" y="1256"/>
      <point x="1030" y="1280"/>
      <point x="1042" y="1342" type="curve" smooth="yes"/>
      <point x="1052" y="1396"/>
      <point x="1032" y="1422"/>
      <point x="988" y="1422" type="curve" smooth="yes"/>
      <point x="942" y="1422"/>
      <point x="916" y="1410"/>
      <point x="904" y="1362" type="curve" smooth="yes"/>
      <point x="886" y="1294"/>
      <point x="906" y="1256"/>
    </contour>
    <contour>
      <point x="554" y="1256" type="curve" smooth="yes"/>
      <point x="602" y="1256"/>
      <point x="630" y="1280"/>
      <point x="642" y="1342" type="curve" smooth="yes"/>
      <point x="652" y="1396"/>
      <point x="632" y="1422"/>
      <point x="588" y="1422" type="curve" smooth="yes"/>
      <point x="542" y="1422"/>
      <point x="516" y="1410"/>
      <point x="504" y="1362" type="curve" smooth="yes"/>
      <point x="486" y="1294"/>
      <point x="506" y="1256"/>
    </contour>
  </outline>
</glyph>
<glyph name="cedillacomb" format="2">
  <unicode hex="0327"/>
  <anchor x="494" y="0" name="_bottom"/>
  <outline>
    <contour>
      <point x="378" y="-420" type="curve" smooth="yes"/>
      <point x="508" y="-420"/>
      <point x="574" y="-370"/>
      <point x="592" y="-286" type="curve" smooth="yes"/>
      <point x="604" y="-232"/>
      <point x="584" y="-150"/>
      <point x="440" y="-128" type="curve"/>
      <point x="522" y="0" type="line"/>
      <point x="528" y="24" type="line"/>
      <point x="478" y="24" type="line"/>
      <point x="354" y="-170" type="line"/>
      <point x="518" y="-180"/>
      <point x="542" y="-236"/>
      <point x="532" y="-278" type="curve" smooth="yes"/>
      <point x="520" y="-326"/>
      <point x="486" y="-360"/>
      <point x="378" y="-362" type="curve"/>
      <point x="350" y="-358"/>
      <point x="290" y="-350"/>
      <point x="266" y="-346" type="curve"/>
      <point x="252" y="-406" type="line"/>
      <point x="306" y="-414"/>
      <point x="364" y="-420"/>
    </contour>
  </outline>
</glyph>
<glyph name="strokelongcomb" format="2">
  <unicode hex="0336"/>
  <anchor x="656" y="714" name="_center"/>
  <outline>
    <contour>
      <point x="38" y="1060" type="line"/>
      <point x="172" y="1062"/>
      <point x="296" y="1062"/>
      <point x="404" y="1064" type="curve"/>
      <point x="1056" y="1064" type="line"/>
      <point x="1164" y="1062"/>
      <point x="1288" y="1062"/>
      <point x="1418" y="1060" type="curve"/>
      <point x="1434" y="1128" type="line"/>
      <point x="1300" y="1126"/>
      <point x="1176" y="1126"/>
      <point x="1068" y="1124" type="curve"/>
      <point x="416" y="1124" type="line"/>
      <point x="308" y="1126"/>
      <point x="184" y="1126"/>
      <point x="54" y="1128" type="curve"/>
    </contour>
  </outline>
</glyph>
<glyph name="slashlongcomb" format="2">
  <unicode hex="0338"/>
  <anchor x="614" y="714" name="_center"/>
  <outline>
    <contour>
      <point x="-42" y="-116" type="line"/>
      <point x="106" y="56"/>
      <point x="244" y="216"/>
      <point x="408" y="406" type="curve"/>
      <point x="858" y="926" type="line"/>
      <point x="1024" y="1114"/>
      <point x="1160" y="1268"/>
      <point x="1316" y="1444" type="curve"/>
      <point x="1260" y="1490" type="line"/>
      <point x="1106" y="1310"/>
      <point x="974" y="1156"/>
      <point x="806" y="960" type="curve"/>
      <point x="362" y="448" type="line"/>
      <point x="196" y="262"/>
      <point x="60" y="108"/>
      <point x="-96" y="-66" type="curve"/>
    </contour>
  </outline>
</glyph>
<glyph name="dagger" format="2">
  <advance width="1120"/>
  <unicode hex="2020"/>
  <outline>
    <contour>
      <point x="418" y="0" type="curve"/>
      <point x="490" y="0" type="line"/>
      <point x="552" y="302"/>
      <point x="604" y="552"/>
      <point x="668" y="862" type="curve"/>
      <point x="676" y="894" type="line"/>
      <point x="714" y="1064"/>
      <point x="750" y="1224"/>
      <point x="782" y="1368" type="curve"/>
      <point x="710" y="1368" type="line"/>
      <point x="682" y="1226"/>
      <point x="650" y="1064"/>
      <point x="616" y="894" type="curve"/>
      <point x="608" y="862" type="line"/>
      <point x="540" y="552"/>
      <point x="484" y="300"/>
    </contour>
    <contour>
      <point x="196" y="856" type="line"/>
      <point x="314" y="858"/>
      <point x="448" y="860"/>
      <point x="518" y="860" type="curve"/>
      <point x="758" y="860" type="line"/>
      <point x="828" y="860"/>
      <point x="962" y="858"/>
      <point x="1076" y="856" type="curve"/>
      <point x="1092" y="924" type="line"/>
      <point x="974" y="922"/>
      <point x="840" y="920"/>
      <point x="770" y="920" type="curve"/>
      <point x="530" y="920" type="line"/>
      <point x="460" y="920"/>
      <point x="326" y="922"/>
      <point x="212" y="924" type="curve"/>
    </contour>
  </outline>
</glyph>
<glyph name="fraction" format="2">
  <advance width="546"/>
  <unicode hex="2044"/>
  <outline>
    <contour>
      <point x="-272" y="0" type="curve"/>
      <point x="-186" y="0" type="line"/>
      <point x="-74" y="148"/>
      <point x="22" y="276"/>
      <point x="160" y="458" type="curve"/>
      <point x="544" y="958" type="line"/>
      <point x="692" y="1148"/>
      <point x="790" y="1272"/>
      <point x="910" y="1426" type="curve"/>
      <point x="824" y="1426" type="line"/>
      <point x="710" y="1276"/>
      <point x="614" y="1148"/>
      <point x="470" y="958" type="curve"/>
      <point x="86" y="458" type="line"/>
      <point x="-56" y="276"/>
      <point x="-156" y="148"/>
    </contour>
  </outline>
</glyph>
<glyph name="colonsign" format="2">
  <advance width="1312"/>
  <unicode hex="20A1"/>
  <outline>
    <contour>
      <point x="726" y="-18" type="curve" smooth="yes"/>
      <point x="816" y="-18"/>
      <point x="996" y="36"/>
      <point x="1110" y="78" type="curve"/>
      <point x="1114" y="162" type="line"/>
      <point x="974" y="94"/>
      <point x="786" y="46"/>
      <point x="724" y="46" type="curve"/>
      <point x="312" y="50"/>
      <point x="158" y="392"/>
      <point x="234" y="754" type="curve" smooth="yes"/>
      <point x="316" y="1142"/>
      <point x="576" y="1324"/>
      <point x="928" y="1328" type="curve"/>
      <point x="982" y="1328"/>
      <point x="1168" y="1270"/>
      <point x="1348" y="1200" type="curve"/>
      <point x="1372" y="1266" type="line"/>
      <point x="1260" y="1306"/>
      <point x="1024" y="1392"/>
      <point x="932" y="1392" type="curve" smooth="yes"/>
      <point x="552" y="1392"/>
      <point x="260" y="1180"/>
      <point x="172" y="766" type="curve" smooth="yes"/>
      <point x="88" y="366"/>
      <point x="278" y="-18"/>
    </contour>
    <contour>
      <point x="198" y="-274" type="curve"/>
      <point x="268" y="-274" type="line"/>
      <point x="386" y="8"/>
      <point x="512" y="308"/>
      <point x="544" y="384" type="curve"/>
      <point x="784" y="948" type="line"/>
      <point x="816" y="1022"/>
      <point x="950" y="1332"/>
      <point x="1068" y="1606" type="curve"/>
      <point x="998" y="1606" type="line"/>
      <point x="882" y="1330"/>
      <point x="754" y="1024"/>
      <point x="722" y="948" type="curve"/>
      <point x="482" y="384" type="line"/>
      <point x="450" y="310"/>
      <point x="318" y="4"/>
    </contour>
    <contour>
      <point x="452" y="-274" type="curve"/>
      <point x="522" y="-274" type="line"/>
      <point x="640" y="8"/>
      <point x="766" y="308"/>
      <point x="798" y="384" type="curve"/>
      <point x="1038" y="948" type="line"/>
      <point x="1070" y="1022"/>
      <point x="1204" y="1332"/>
      <point x="1322" y="1606" type="curve"/>
      <point x="1252" y="1606" type="line"/>
      <point x="1136" y="1330"/>
      <point x="1008" y="1024"/>
      <point x="976" y="948" type="curve"/>
      <point x="736" y="384" type="line"/>
      <point x="704" y="310"/>
      <point x="572" y="4"/>
    </contour>
  </outline>
</glyph>
<glyph name="dong" format="2">
  <advance width="1120"/>
  <unicode hex="20AB"/>
  <outline>
    <contour>
      <point x="486" y="278" type="curve" smooth="yes"/>
      <point x="558" y="278"/>
      <point x="676" y="330"/>
      <point x="752" y="398" type="curve"/>
      <point x="764" y="398" type="line"/>
      <point x="746" y="292" type="line"/>
      <point x="804" y="292" type="line"/>
      <point x="828" y="414"/>
      <point x="846" y="510"/>
      <point x="872" y="642" type="curve"/>
      <point x="966" y="1088" type="line"/>
      <point x="996" y="1220"/>
      <point x="1022" y="1344"/>
      <point x="1052" y="1476" type="curve"/>
      <point x="978" y="1464" type="line"/>
      <point x="956" y="1350"/>
      <point x="932" y="1218"/>
      <point x="906" y="1086" type="curve"/>
      <point x="884" y="980" type="line"/>
      <point x="874" y="980" type="line"/>
      <point x="804" y="1032"/>
      <point x="668" y="1100"/>
      <point x="576" y="1100" type="curve" smooth="yes"/>
      <point x="372" y="1100"/>
      <point x="222" y="962"/>
      <point x="174" y="732" type="curve" smooth="yes"/>
      <point x="126" y="500"/>
      <point x="224" y="278"/>
    </contour>
    <contour>
      <point x="-6" y="-4" type="line"/>
      <point x="110" y="-2"/>
      <point x="244" y="0"/>
      <point x="314" y="0" type="curve"/>
      <point x="514" y="0" type="line"/>
      <point x="584" y="0"/>
      <point x="718" y="-2"/>
      <point x="834" y="-4" type="curve"/>
      <point x="848" y="60" type="line"/>
      <point x="732" y="58"/>
      <point x="596" y="56"/>
      <point x="526" y="56" type="curve"/>
      <point x="326" y="56" type="line"/>
      <point x="256" y="56"/>
      <point x="124" y="58"/>
      <point x="8" y="60" type="curve"/>
    </contour>
    <contour>
      <point x="492" y="338" type="curve"/>
      <point x="270" y="340"/>
      <point x="190" y="512"/>
      <point x="236" y="726" type="curve" smooth="yes"/>
      <point x="274" y="904"/>
      <point x="378" y="1036"/>
      <point x="580" y="1038" type="curve" smooth="yes"/>
      <point x="660" y="1036"/>
      <point x="786" y="978"/>
      <point x="870" y="914" type="curve"/>
      <point x="782" y="494" type="line"/>
      <point x="702" y="418"/>
      <point x="580" y="342"/>
    </contour>
    <contour>
      <point x="546" y="1276" type="line"/>
      <point x="662" y="1278"/>
      <point x="796" y="1280"/>
      <point x="868" y="1280" type="curve"/>
      <point x="908" y="1280" type="line"/>
      <point x="980" y="1280"/>
      <point x="1110" y="1278"/>
      <point x="1226" y="1276" type="curve"/>
      <point x="1240" y="1340" type="line"/>
      <point x="1124" y="1338"/>
      <point x="990" y="1336"/>
      <point x="918" y="1336" type="curve"/>
      <point x="878" y="1336" type="line"/>
      <point x="806" y="1336"/>
      <point x="676" y="1338"/>
      <point x="560" y="1340" type="curve"/>
    </contour>
  </outline>
</glyph>
<glyph name="euro" format="2">
  <advance width="1400"/>
  <unicode hex="20AC"/>
  <outline>
    <contour>
      <point x="826" y="-18" type="curve" smooth="yes"/>
      <point x="914" y="-18"/>
      <point x="1092" y="30"/>
      <point x="1204" y="66" type="curve"/>
      <point x="1208" y="148" type="line"/>
      <point x="1070" y="88"/>
      <point x="886" y="46"/>
      <point x="824" y="46" type="curve"/>
      <point x="412" y="50"/>
      <point x="276" y="392"/>
      <point x="352" y="754" type="curve" smooth="yes"/>
      <point x="434" y="1142"/>
      <point x="674" y="1324"/>
      <point x="1028" y="1328" type="curve"/>
      <point x="1082" y="1328"/>
      <point x="1266" y="1276"/>
      <point x="1444" y="1212" type="curve"/>
      <point x="1466" y="1278" type="line"/>
      <point x="1356" y="1314"/>
      <point x="1122" y="1392"/>
      <point x="1032" y="1392" type="curve" smooth="yes"/>
      <point x="652" y="1392"/>
      <point x="376" y="1180"/>
      <point x="290" y="766" type="curve" smooth="yes"/>
      <point x="206" y="366"/>
      <point x="378" y="-18"/>
    </contour>
    <contour>
      <point x="66" y="514" type="line"/>
      <point x="184" y="518"/>
      <point x="294" y="518"/>
      <point x="388" y="518" type="curve"/>
      <point x="688" y="518" type="line"/>
      <point x="782" y="518"/>
      <point x="892" y="518"/>
      <point x="1006" y="514" type="curve"/>
      <point x="1020" y="578" type="line"/>
      <point x="904" y="574"/>
      <point x="794" y="574"/>
      <point x="700" y="574" type="curve"/>
      <point x="400" y="574" type="line"/>
      <point x="306" y="574"/>
      <point x="196" y="574"/>
      <point x="80" y="578" type="curve"/>
    </contour>
    <contour>
      <point x="122" y="774" type="line"/>
      <point x="238" y="778"/>
      <point x="348" y="778"/>
      <point x="442" y="778" type="curve"/>
      <point x="802" y="778" type="line"/>
      <point x="896" y="778"/>
      <point x="1006" y="778"/>
      <point x="1122" y="774" type="curve"/>
      <point x="1136" y="838" type="line"/>
      <point x="1018" y="834"/>
      <point x="908" y="834"/>
      <point x="814" y="834" type="curve"/>
      <point x="454" y="834" type="line"/>
      <point x="360" y="834"/>
      <point x="250" y="834"/>
      <point x="136" y="838" type="curve"/>
    </contour>
  </outline>
</glyph>
<glyph name="kip" format="2">
  <advance width="1302"/>
  <unicode hex="20AD"/>
  <outline>
    <contour>
      <point x="1030" y="0" type="curve"/>
      <point x="1130" y="0" type="line"/>
      <point x="1028" y="112"/>
      <point x="856" y="300"/>
      <point x="734" y="432" type="curve"/>
      <point x="478" y="718" type="line"/>
      <point x="490" y="692" type="line"/>
      <point x="830" y="952" type="line"/>
      <point x="1002" y="1082"/>
      <point x="1190" y="1222"/>
      <point x="1382" y="1368" type="curve"/>
      <point x="1270" y="1368" type="line"/>
      <point x="1072" y="1214"/>
      <point x="934" y="1108"/>
      <point x="782" y="990" type="curve"/>
      <point x="452" y="736" type="line"/>
      <point x="372" y="736" type="line"/>
      <point x="360" y="680" type="line"/>
      <point x="432" y="680" type="line"/>
      <point x="700" y="378" type="line"/>
      <point x="798" y="266"/>
      <point x="908" y="140"/>
    </contour>
    <contour>
      <point x="164" y="0" type="curve"/>
      <point x="236" y="0" type="line"/>
      <point x="268" y="158"/>
      <point x="294" y="290"/>
      <point x="328" y="458" type="curve"/>
      <point x="424" y="910" type="line"/>
      <point x="462" y="1078"/>
      <point x="494" y="1218"/>
      <point x="528" y="1368" type="curve"/>
      <point x="456" y="1368" type="line"/>
      <point x="426" y="1218"/>
      <point x="396" y="1078"/>
      <point x="362" y="910" type="curve"/>
      <point x="266" y="458" type="line"/>
      <point x="228" y="290"/>
      <point x="200" y="158"/>
    </contour>
    <contour>
      <point x="114" y="676" type="line"/>
      <point x="232" y="678"/>
      <point x="366" y="680"/>
      <point x="436" y="680" type="curve"/>
      <point x="836" y="680" type="line"/>
      <point x="906" y="680"/>
      <point x="1040" y="678"/>
      <point x="1154" y="676" type="curve"/>
      <point x="1168" y="740" type="line"/>
      <point x="1052" y="738"/>
      <point x="918" y="736"/>
      <point x="848" y="736" type="curve"/>
      <point x="448" y="736" type="line"/>
      <point x="378" y="736"/>
      <point x="244" y="738"/>
      <point x="128" y="740" type="curve"/>
    </contour>
  </outline>
</glyph>
<glyph name="peso" format="2">
  <advance width="1402"/>
  <unicode hex="20B1"/>
  <outline>
    <contour>
      <point x="346" y="596" type="line"/>
      <point x="422" y="596"/>
      <point x="590" y="594"/>
      <point x="686" y="594" type="curve"/>
      <point x="1082" y="594"/>
      <point x="1182" y="738"/>
      <point x="1232" y="970" type="curve" smooth="yes"/>
      <point x="1282" y="1204"/>
      <point x="1152" y="1370"/>
      <point x="862" y="1370" type="curve"/>
      <point x="676" y="1368"/>
      <point x="556" y="1368"/>
      <point x="456" y="1368" type="curve"/>
      <point x="486" y="1308" type="line"/>
      <point x="854" y="1308" type="line" smooth="yes"/>
      <point x="1026" y="1308"/>
      <point x="1226" y="1254"/>
      <point x="1168" y="978" type="curve" smooth="yes"/>
      <point x="1110" y="702"/>
      <point x="964" y="656"/>
      <point x="692" y="656" type="curve" smooth="yes"/>
      <point x="360" y="656" type="line"/>
    </contour>
    <contour>
      <point x="196" y="1056" type="line"/>
      <point x="312" y="1058"/>
      <point x="446" y="1060"/>
      <point x="516" y="1060" type="curve"/>
      <point x="1126" y="1060" type="line"/>
      <point x="1196" y="1060"/>
      <point x="1330" y="1058"/>
      <point x="1446" y="1056" type="curve"/>
      <point x="1460" y="1120" type="line"/>
      <point x="1342" y="1118"/>
      <point x="1208" y="1116"/>
      <point x="1138" y="1116" type="curve"/>
      <point x="528" y="1116" type="line"/>
      <point x="458" y="1116"/>
      <point x="324" y="1118"/>
      <point x="210" y="1120" type="curve"/>
    </contour>
    <contour>
      <point x="164" y="0" type="curve"/>
      <point x="236" y="0" type="line"/>
      <point x="268" y="160"/>
      <point x="294" y="290"/>
      <point x="328" y="460" type="curve"/>
      <point x="422" y="904" type="line"/>
      <point x="462" y="1084"/>
      <point x="490" y="1212"/>
      <point x="524" y="1364" type="curve"/>
      <point x="456" y="1368" type="line"/>
      <point x="426" y="1220"/>
      <point x="396" y="1078"/>
      <point x="362" y="910" type="curve"/>
      <point x="266" y="458" type="line"/>
      <point x="228" y="288"/>
      <point x="200" y="160"/>
    </contour>
    <contour>
      <point x="152" y="856" type="line"/>
      <point x="270" y="858"/>
      <point x="404" y="860"/>
      <point x="474" y="860" type="curve"/>
      <point x="1084" y="860" type="line"/>
      <point x="1154" y="860"/>
      <point x="1288" y="858"/>
      <point x="1402" y="856" type="curve"/>
      <point x="1416" y="920" type="line"/>
      <point x="1300" y="918"/>
      <point x="1166" y="916"/>
      <point x="1096" y="916" type="curve"/>
      <point x="486" y="916" type="line"/>
      <point x="416" y="916"/>
      <point x="282" y="918"/>
      <point x="166" y="920" type="curve"/>
    </contour>
  </outline>
</glyph>
<glyph name="cedi" format="2">
  <advance width="1312"/>
  <unicode hex="20B5"/>
  <outline>
    <contour>
      <point x="544" y="-274" type="curve"/>
      <point x="612" y="-274" type="line"/>
      <point x="670" y="2"/>
      <point x="732" y="308"/>
      <point x="748" y="384" type="curve"/>
      <point x="868" y="948" type="line"/>
      <point x="884" y="1024"/>
      <point x="952" y="1328"/>
      <point x="1012" y="1606" type="curve"/>
      <point x="944" y="1606" type="line"/>
      <point x="886" y="1328"/>
      <point x="824" y="1024"/>
      <point x="808" y="948" type="curve"/>
      <point x="688" y="384" type="line"/>
      <point x="672" y="308"/>
      <point x="604" y="2"/>
    </contour>
    <contour>
      <point x="726" y="-18" type="curve" smooth="yes"/>
      <point x="816" y="-18"/>
      <point x="996" y="36"/>
      <point x="1110" y="78" type="curve"/>
      <point x="1114" y="162" type="line"/>
      <point x="974" y="94"/>
      <point x="786" y="46"/>
      <point x="724" y="46" type="curve"/>
      <point x="312" y="50"/>
      <point x="158" y="392"/>
      <point x="234" y="754" type="curve" smooth="yes"/>
      <point x="316" y="1142"/>
      <point x="576" y="1324"/>
      <point x="928" y="1328" type="curve"/>
      <point x="982" y="1328"/>
      <point x="1168" y="1270"/>
      <point x="1348" y="1200" type="curve"/>
      <point x="1372" y="1266" type="line"/>
      <point x="1260" y="1306"/>
      <point x="1024" y="1392"/>
      <point x="932" y="1392" type="curve" smooth="yes"/>
      <point x="552" y="1392"/>
      <point x="260" y="1180"/>
      <point x="172" y="766" type="curve" smooth="yes"/>
      <point x="88" y="366"/>
      <point x="278" y="-18"/>
    </contour>
  </outline>
</glyph>
<glyph name="liraTurkish" format="2">
  <advance width="1292"/>
  <unicode hex="20BA"/>
  <outline>
    <contour>
      <point x="200" y="0" type="curve"/>
      <point x="254" y="0" type="line"/>
      <point x="272" y="8" type="line"/>
      <point x="302" y="166"/>
      <point x="328" y="290"/>
      <point x="364" y="458" type="curve"/>
      <point x="460" y="910" type="line"/>
      <point x="498" y="1078"/>
      <point x="530" y="1218"/>
      <point x="564" y="1368" type="curve"/>
      <point x="492" y="1368" type="line"/>
      <point x="462" y="1218"/>
      <point x="432" y="1078"/>
      <point x="398" y="910" type="curve"/>
      <point x="302" y="458" type="line"/>
      <point x="264" y="290"/>
      <point x="236" y="158"/>
    </contour>
    <contour>
      <point x="254" y="0" type="line"/>
      <point x="488" y="0" type="line" smooth="yes"/>
      <point x="794" y="0"/>
      <point x="1002" y="142"/>
      <point x="1132" y="402" type="curve"/>
      <point x="1168" y="490"/>
      <point x="1204" y="594"/>
      <point x="1242" y="706" type="curve"/>
      <point x="1172" y="706" type="line"/>
      <point x="1138" y="602"/>
      <point x="1108" y="514"/>
      <point x="1080" y="434" type="curve"/>
      <point x="964" y="196"/>
      <point x="780" y="60"/>
      <point x="486" y="60" type="curve" smooth="yes"/>
      <point x="268" y="60" type="line"/>
    </contour>
    <contour>
      <point x="144" y="418" type="line"/>
      <point x="262" y="468"/>
      <point x="372" y="514"/>
      <point x="472" y="556" type="curve"/>
      <point x="598" y="608" type="line"/>
      <point x="700" y="648"/>
      <point x="806" y="690"/>
      <point x="922" y="736" type="curve"/>
      <point x="910" y="800" type="line"/>
      <point x="796" y="752"/>
      <point x="686" y="706"/>
      <point x="592" y="666" type="curve"/>
      <point x="450" y="608" type="line"/>
      <point x="358" y="572"/>
      <point x="246" y="528"/>
      <point x="128" y="482" type="curve"/>
    </contour>
    <contour>
      <point x="202" y="698" type="line"/>
      <point x="320" y="748"/>
      <point x="430" y="794"/>
      <point x="530" y="836" type="curve"/>
      <point x="656" y="888" type="line"/>
      <point x="758" y="928"/>
      <point x="864" y="970"/>
      <point x="980" y="1016" type="curve"/>
      <point x="968" y="1080" type="line"/>
      <point x="854" y="1032"/>
      <point x="744" y="986"/>
      <point x="650" y="946" type="curve"/>
      <point x="508" y="888" type="line"/>
      <point x="416" y="852"/>
      <point x="304" y="808"/>
      <point x="186" y="762" type="curve"/>
    </contour>
  </outline>
</glyph>
<glyph name="trademark" format="2">
  <advance width="1704"/>
  <unicode hex="2122"/>
  <outline>
    <contour>
      <point x="782" y="620" type="curve"/>
      <point x="856" y="620" type="line"/>
      <point x="898" y="752"/>
      <point x="946" y="902"/>
      <point x="988" y="1034" type="curve"/>
      <point x="1076" y="1298" type="line"/>
      <point x="1082" y="1298" type="line"/>
      <point x="1140" y="1010" type="line"/>
      <point x="1162" y="892"/>
      <point x="1188" y="750"/>
      <point x="1212" y="620" type="curve"/>
      <point x="1268" y="620" type="line"/>
      <point x="1348" y="752"/>
      <point x="1428" y="882"/>
      <point x="1508" y="1014" type="curve"/>
      <point x="1686" y="1298" type="line"/>
      <point x="1692" y="1298" type="line"/>
      <point x="1668" y="1034" type="line"/>
      <point x="1654" y="902"/>
      <point x="1638" y="752"/>
      <point x="1624" y="620" type="curve"/>
      <point x="1696" y="620" type="line"/>
      <point x="1702" y="708"/>
      <point x="1708" y="802"/>
      <point x="1714" y="886" type="curve"/>
      <point x="1738" y="1150" type="line"/>
      <point x="1748" y="1236"/>
      <point x="1758" y="1330"/>
      <point x="1768" y="1418" type="curve"/>
      <point x="1690" y="1418" type="line"/>
      <point x="1614" y="1292"/>
      <point x="1546" y="1180"/>
      <point x="1480" y="1072" type="curve"/>
      <point x="1262" y="726" type="line"/>
      <point x="1256" y="726" type="line"/>
      <point x="1186" y="1076" type="line"/>
      <point x="1166" y="1184"/>
      <point x="1144" y="1300"/>
      <point x="1122" y="1418" type="curve"/>
      <point x="1048" y="1418" type="line"/>
      <point x="1018" y="1322"/>
      <point x="994" y="1244"/>
      <point x="964" y="1148" type="curve"/>
      <point x="878" y="890" type="line"/>
      <point x="844" y="794"/>
      <point x="816" y="716"/>
    </contour>
    <contour>
      <point x="350" y="620" type="curve"/>
      <point x="424" y="620" type="line"/>
      <point x="442" y="714"/>
      <point x="456" y="790"/>
      <point x="474" y="884" type="curve"/>
      <point x="530" y="1146" type="line"/>
      <point x="552" y="1240"/>
      <point x="570" y="1316"/>
      <point x="592" y="1410" type="curve"/>
      <point x="588" y="1418" type="line"/>
      <point x="526" y="1418" type="line"/>
      <point x="518" y="1410" type="line"/>
      <point x="500" y="1316"/>
      <point x="486" y="1240"/>
      <point x="468" y="1146" type="curve"/>
      <point x="412" y="884" type="line"/>
      <point x="390" y="790"/>
      <point x="372" y="714"/>
    </contour>
    <contour>
      <point x="222" y="1354" type="line"/>
      <point x="288" y="1356"/>
      <point x="356" y="1358"/>
      <point x="450" y="1360" type="curve"/>
      <point x="524" y="1360" type="line"/>
      <point x="536" y="1418" type="line"/>
      <point x="236" y="1418" type="line"/>
    </contour>
    <contour>
      <point x="566" y="1360" type="line"/>
      <point x="638" y="1360" type="line"/>
      <point x="732" y="1358"/>
      <point x="800" y="1356"/>
      <point x="862" y="1354" type="curve"/>
      <point x="876" y="1418" type="line"/>
      <point x="578" y="1418" type="line"/>
    </contour>
  </outline>
</glyph>
<glyph name="Ohm" format="2">
  <advance width="1590"/>
  <unicode hex="2126"/>
  <outline>
    <contour>
      <point x="-26" y="0" type="line"/>
      <point x="532" y="0" type="line"/>
      <point x="558" y="130"/>
      <point x="582" y="252"/>
      <point x="610" y="390" type="curve"/>
      <point x="358" y="568"/>
      <point x="278" y="798"/>
      <point x="312" y="958" type="curve" smooth="yes"/>
      <point x="366" y="1216"/>
      <point x="532" y="1376"/>
      <point x="916" y="1384" type="curve"/>
      <point x="1312" y="1376"/>
      <point x="1510" y="1136"/>
      <point x="1448" y="840" type="curve" smooth="yes"/>
      <point x="1412" y="670"/>
      <point x="1252" y="518"/>
      <point x="932" y="390" type="curve"/>
      <point x="900" y="246"/>
      <point x="876" y="136"/>
      <point x="846" y="0" type="curve"/>
      <point x="1404" y="0" type="line"/>
      <point x="1418" y="70" type="line"/>
      <point x="1314" y="68"/>
      <point x="1152" y="64"/>
      <point x="1048" y="62" type="curve"/>
      <point x="896" y="62" type="line"/>
      <point x="926" y="32" type="line"/>
      <point x="956" y="180"/>
      <point x="972" y="262"/>
      <point x="998" y="390" type="curve"/>
      <point x="932" y="318" type="line"/>
      <point x="1254" y="456"/>
      <point x="1464" y="604"/>
      <point x="1512" y="830" type="curve" smooth="yes"/>
      <point x="1580" y="1154"/>
      <point x="1346" y="1450"/>
      <point x="920" y="1450" type="curve" smooth="yes"/>
      <point x="534" y="1450"/>
      <point x="312" y="1270"/>
      <point x="248" y="968" type="curve" smooth="yes"/>
      <point x="206" y="772"/>
      <point x="316" y="516"/>
      <point x="586" y="326" type="curve"/>
      <point x="546" y="390" type="line"/>
      <point x="518" y="266"/>
      <point x="500" y="184"/>
      <point x="466" y="32" type="curve"/>
      <point x="510" y="62" type="line"/>
      <point x="358" y="62" type="line"/>
      <point x="254" y="64"/>
      <point x="92" y="68"/>
      <point x="-12" y="70" type="curve"/>
    </contour>
  </outline>
</glyph>
<glyph name="product" format="2">
  <advance width="1556"/>
  <unicode hex="220F"/>
  <outline>
    <contour>
      <point x="982" y="-384" type="curve"/>
      <point x="1056" y="-384" type="line"/>
      <point x="1096" y="-186"/>
      <point x="1132" y="-2"/>
      <point x="1176" y="210" type="curve"/>
      <point x="1306" y="824" type="line"/>
      <point x="1354" y="1040"/>
      <point x="1394" y="1220"/>
      <point x="1438" y="1418" type="curve"/>
      <point x="1440" y="1426" type="line"/>
      <point x="1364" y="1426" type="line"/>
      <point x="1362" y="1418" type="line"/>
      <point x="1322" y="1220"/>
      <point x="1286" y="1042"/>
      <point x="1242" y="824" type="curve"/>
      <point x="1112" y="210" type="line"/>
      <point x="1064" y="-10"/>
      <point x="1026" y="-182"/>
    </contour>
    <contour>
      <point x="132" y="-384" type="curve"/>
      <point x="206" y="-384" type="line"/>
      <point x="246" y="-186"/>
      <point x="282" y="-2"/>
      <point x="326" y="210" type="curve"/>
      <point x="456" y="824" type="line"/>
      <point x="504" y="1040"/>
      <point x="544" y="1220"/>
      <point x="588" y="1418" type="curve"/>
      <point x="590" y="1426" type="line"/>
      <point x="514" y="1426" type="line"/>
      <point x="512" y="1418" type="line"/>
      <point x="472" y="1220"/>
      <point x="436" y="1042"/>
      <point x="392" y="824" type="curve"/>
      <point x="262" y="210" type="line"/>
      <point x="214" y="-10"/>
      <point x="176" y="-182"/>
    </contour>
    <contour>
      <point x="254" y="1356" type="line"/>
      <point x="352" y="1358"/>
      <point x="548" y="1362"/>
      <point x="666" y="1364" type="curve"/>
      <point x="1258" y="1364" type="line"/>
      <point x="1374" y="1362"/>
      <point x="1572" y="1358"/>
      <point x="1670" y="1356" type="curve"/>
      <point x="1684" y="1426" type="line"/>
      <point x="268" y="1426" type="line"/>
    </contour>
  </outline>
</glyph>
<glyph name="minus" format="2">
  <advance width="1120"/>
  <unicode hex="2212"/>
  <outline>
    <contour>
      <point x="154" y="556" type="line"/>
      <point x="270" y="558"/>
      <point x="404" y="560"/>
      <point x="474" y="560" type="curve"/>
      <point x="674" y="560" type="line"/>
      <point x="744" y="560"/>
      <point x="878" y="558"/>
      <point x="994" y="556" type="curve"/>
      <point x="1008" y="624" type="line"/>
      <point x="892" y="622"/>
      <point x="756" y="620"/>
      <point x="686" y="620" type="curve"/>
      <point x="486" y="620" type="line"/>
      <point x="416" y="620"/>
      <point x="284" y="622"/>
      <point x="168" y="624" type="curve"/>
    </contour>
  </outline>
</glyph>
<glyph name="divisionslash" format="2">
  <advance width="724"/>
  <unicode hex="2215"/>
  <outline>
    <contour>
      <point x="-28" y="0" type="curve"/>
      <point x="48" y="0" type="line"/>
      <point x="128" y="146"/>
      <point x="196" y="270"/>
      <point x="298" y="456" type="curve"/>
      <point x="572" y="948" type="line"/>
      <point x="680" y="1140"/>
      <point x="750" y="1264"/>
      <point x="842" y="1426" type="curve"/>
      <point x="766" y="1426" type="line"/>
      <point x="682" y="1274"/>
      <point x="612" y="1144"/>
      <point x="506" y="952" type="curve"/>
      <point x="230" y="456" type="line"/>
      <point x="126" y="272"/>
      <point x="54" y="146"/>
    </contour>
  </outline>
</glyph>
<glyph name="radical" format="2">
  <advance width="1122"/>
  <unicode hex="221A"/>
  <outline>
    <contour>
      <point x="550" y="0" type="curve"/>
      <point x="632" y="0" type="line"/>
      <point x="698" y="148"/>
      <point x="750" y="266"/>
      <point x="836" y="458" type="curve"/>
      <point x="1156" y="1156" type="line"/>
      <point x="1248" y="1352"/>
      <point x="1310" y="1484"/>
      <point x="1382" y="1636" type="curve"/>
      <point x="1306" y="1636" type="line"/>
      <point x="1238" y="1484"/>
      <point x="1178" y="1352"/>
      <point x="1090" y="1156" type="curve"/>
      <point x="606" y="100" type="line"/>
      <point x="594" y="100" type="line"/>
      <point x="520" y="406" type="line"/>
      <point x="492" y="530"/>
      <point x="466" y="644"/>
      <point x="440" y="760" type="curve"/>
      <point x="372" y="760" type="line"/>
      <point x="446" y="456" type="line"/>
      <point x="488" y="272"/>
      <point x="518" y="140"/>
    </contour>
    <contour>
      <point x="96" y="696" type="line"/>
      <point x="214" y="698"/>
      <point x="348" y="700"/>
      <point x="418" y="700" type="curve"/>
      <point x="430" y="760" type="line"/>
      <point x="360" y="760"/>
      <point x="226" y="762"/>
      <point x="112" y="764" type="curve"/>
    </contour>
  </outline>
</glyph>
<glyph name="lozenge" format="2">
  <advance width="1180"/>
  <unicode hex="25CA"/>
  <outline>
    <contour>
      <point x="560" y="20" type="curve"/>
      <point x="664" y="20" type="line"/>
      <point x="798" y="212"/>
      <point x="932" y="402"/>
      <point x="1066" y="594" type="curve"/>
      <point x="932" y="786"/>
      <point x="798" y="976"/>
      <point x="664" y="1168" type="curve"/>
      <point x="560" y="1168" type="line"/>
      <point x="426" y="976"/>
      <point x="292" y="786"/>
      <point x="158" y="594" type="curve"/>
      <point x="292" y="402"/>
      <point x="426" y="212"/>
    </contour>
    <contour>
      <point x="606" y="76" type="line"/>
      <point x="482" y="248"/>
      <point x="356" y="422"/>
      <point x="232" y="594" type="curve"/>
      <point x="356" y="766"/>
      <point x="482" y="940"/>
      <point x="606" y="1112" type="curve"/>
      <point x="618" y="1112" type="line"/>
      <point x="742" y="940"/>
      <point x="868" y="766"/>
      <point x="992" y="594" type="curve"/>
      <point x="868" y="422"/>
      <point x="742" y="248"/>
      <point x="618" y="76" type="curve"/>
    </contour>
  </outline>
</glyph>
<glyph name="OE.001" format="2">
  <advance width="2414"/>
  <anchor x="1103" y="0" name="bottom"/>
  <anchor x="1406" y="1426" name="top"/>
  <outline>
    <contour>
      <point x="806" y="-18" type="curve" smooth="yes"/>
      <point x="1178" y="-18"/>
      <point x="1458" y="242"/>
      <point x="1538" y="618" type="curve"/>
      <point x="1538" y="624" type="line"/>
      <point x="1632" y="1064"/>
      <point x="1388" y="1450"/>
      <point x="938" y="1450" type="curve" smooth="yes"/>
      <point x="554" y="1450"/>
      <point x="264" y="1194"/>
      <point x="176" y="786" type="curve" smooth="yes"/>
      <point x="84" y="352"/>
      <point x="344" y="-18"/>
    </contour>
    <contour>
      <point x="806" y="48" type="curve"/>
      <point x="394" y="56"/>
      <point x="152" y="354"/>
      <point x="240" y="774" type="curve" smooth="yes"/>
      <point x="318" y="1132"/>
      <point x="548" y="1376"/>
      <point x="938" y="1384" type="curve"/>
      <point x="1340" y="1376"/>
      <point x="1570" y="1058"/>
      <point x="1480" y="632" type="curve" smooth="yes"/>
      <point x="1412" y="308"/>
      <point x="1184" y="56"/>
    </contour>
    <contour>
      <point x="1344" y="0" type="curve"/>
      <point x="1418" y="0" type="line"/>
      <point x="1420" y="8" type="line"/>
      <point x="1452" y="170"/>
      <point x="1478" y="308"/>
      <point x="1514" y="484" type="curve"/>
      <point x="1612" y="944" type="line"/>
      <point x="1650" y="1120"/>
      <point x="1682" y="1258"/>
      <point x="1718" y="1420" type="curve"/>
      <point x="1718" y="1426" type="line"/>
      <point x="1644" y="1426" type="line"/>
      <point x="1612" y="1268"/>
      <point x="1584" y="1124"/>
      <point x="1548" y="946" type="curve"/>
      <point x="1448" y="476" type="line"/>
      <point x="1410" y="302"/>
      <point x="1380" y="166"/>
    </contour>
    <contour>
      <point x="1400" y="0" type="line"/>
      <point x="2184" y="0" type="line"/>
      <point x="2198" y="64" type="line"/>
      <point x="2044" y="64"/>
      <point x="1880" y="62"/>
      <point x="1694" y="62" type="curve"/>
      <point x="1414" y="62" type="line"/>
    </contour>
    <contour>
      <point x="1546" y="694" type="line"/>
      <point x="1834" y="694" type="line"/>
      <point x="2022" y="694"/>
      <point x="2148" y="692"/>
      <point x="2286" y="692" type="curve"/>
      <point x="2300" y="758" type="line"/>
      <point x="2170" y="758"/>
      <point x="2042" y="756"/>
      <point x="1850" y="756" type="curve"/>
      <point x="1560" y="756" type="line"/>
    </contour>
    <contour>
      <point x="1686" y="1364" type="line"/>
      <point x="1958" y="1364" type="line"/>
      <point x="2178" y="1364"/>
      <point x="2330" y="1362"/>
      <point x="2472" y="1362" type="curve"/>
      <point x="2486" y="1426" type="line"/>
      <point x="1700" y="1426" type="line"/>
    </contour>
  </outline>
</glyph>
<glyph name="_notequal" format="2">
  <advance width="1120"/>
  <outline>
    <contour>
      <point x="370" y="70" type="line"/>
      <point x="422" y="184"/>
      <point x="482" y="312"/>
      <point x="514" y="380" type="curve"/>
      <point x="708" y="786" type="line"/>
      <point x="740" y="854"/>
      <point x="802" y="982"/>
      <point x="858" y="1094" type="curve"/>
      <point x="792" y="1110" type="line"/>
      <point x="740" y="998"/>
      <point x="680" y="870"/>
      <point x="648" y="800" type="curve"/>
      <point x="456" y="394" type="line"/>
      <point x="422" y="326"/>
      <point x="358" y="198"/>
      <point x="302" y="86" type="curve"/>
    </contour>
  </outline>
</glyph>
<glyph name="_question" format="2">
  <advance width="800"/>
  <outline>
    <contour>
      <point x="392" y="420" type="curve" smooth="yes"/>
      <point x="416" y="420"/>
      <point x="470" y="428"/>
      <point x="522" y="436" type="curve"/>
      <point x="530" y="500" type="line"/>
      <point x="484" y="490"/>
      <point x="424" y="476"/>
      <point x="396" y="476" type="curve"/>
      <point x="304" y="478"/>
      <point x="236" y="524"/>
      <point x="258" y="626" type="curve" smooth="yes"/>
      <point x="278" y="722"/>
      <point x="376" y="786"/>
      <point x="494" y="858" type="curve" smooth="yes"/>
      <point x="650" y="952"/>
      <point x="790" y="1038"/>
      <point x="824" y="1202" type="curve" smooth="yes"/>
      <point x="860" y="1380"/>
      <point x="746" y="1498"/>
      <point x="562" y="1498" type="curve" smooth="yes"/>
      <point x="506" y="1498"/>
      <point x="368" y="1460"/>
      <point x="262" y="1430" type="curve"/>
      <point x="254" y="1354" type="line"/>
      <point x="384" y="1396"/>
      <point x="520" y="1434"/>
      <point x="558" y="1434" type="curve"/>
      <point x="716" y="1432"/>
      <point x="790" y="1350"/>
      <point x="762" y="1214" type="curve" smooth="yes"/>
      <point x="732" y="1074"/>
      <point x="610" y="998"/>
      <point x="464" y="908" type="curve" smooth="yes"/>
      <point x="336" y="828"/>
      <point x="222" y="756"/>
      <point x="196" y="634" type="curve" smooth="yes"/>
      <point x="170" y="512"/>
      <point x="256" y="420"/>
    </contour>
  </outline>
</glyph>
<glyph name="_slash.Lslash" format="2">
  <advance width="1152"/>
  <anchor x="574" y="714" name="_center"/>
  <outline>
    <contour>
      <point x="40" y="584" type="line"/>
      <point x="170" y="622"/>
      <point x="290" y="656"/>
      <point x="398" y="688" type="curve"/>
      <point x="498" y="716" type="line"/>
      <point x="604" y="744"/>
      <point x="728" y="778"/>
      <point x="856" y="812" type="curve"/>
      <point x="850" y="880" type="line"/>
      <point x="720" y="842"/>
      <point x="602" y="808"/>
      <point x="492" y="776" type="curve"/>
      <point x="392" y="748" type="line"/>
      <point x="282" y="718"/>
      <point x="168" y="688"/>
      <point x="34" y="652" type="curve"/>
    </contour>
  </outline>
</glyph>
<glyph name="_strokeshortcomb.Eth" format="2">
  <advance width="1478"/>
  <anchor x="787" y="714" name="_center"/>
  <outline>
    <contour>
      <point x="14" y="658" type="line"/>
      <point x="136" y="660"/>
      <point x="230" y="660"/>
      <point x="350" y="662" type="curve"/>
      <point x="442" y="662" type="line"/>
      <point x="558" y="660"/>
      <point x="652" y="660"/>
      <point x="774" y="658" type="curve"/>
      <point x="788" y="726" type="line"/>
      <point x="666" y="724"/>
      <point x="572" y="724"/>
      <point x="454" y="722" type="curve"/>
      <point x="362" y="722" type="line"/>
      <point x="244" y="724"/>
      <point x="150" y="724"/>
      <point x="28" y="726" type="curve"/>
    </contour>
  </outline>
</glyph>
<glyph name="acutecomb.case" format="2">
  <anchor x="704" y="988" name="_top"/>
  <anchor x="778" y="1352" name="top"/>
  <outline>
    <contour>
      <point x="626" y="1152" type="curve"/>
      <point x="700" y="1154" type="line"/>
      <point x="830" y="1270"/>
      <point x="956" y="1384"/>
      <point x="1084" y="1502" type="curve"/>
      <point x="992" y="1502" type="line"/>
      <point x="870" y="1384"/>
      <point x="750" y="1272"/>
    </contour>
  </outline>
</glyph>
<glyph name="circumflexcomb_gravecomb" format="2">
  <anchor x="700" y="988" name="_top"/>
  <outline>
    <contour>
      <point x="1146" y="1480" type="curve"/>
      <point x="1206" y="1482" type="line"/>
      <point x="1134" y="1610"/>
      <point x="1062" y="1738"/>
      <point x="990" y="1866" type="curve"/>
      <point x="912" y="1864" type="line"/>
      <point x="986" y="1734"/>
      <point x="1068" y="1608"/>
    </contour>
    <contour>
      <point x="410" y="1174" type="curve"/>
      <point x="484" y="1174" type="line"/>
      <point x="616" y="1302"/>
      <point x="738" y="1424"/>
      <point x="860" y="1554" type="curve"/>
      <point x="770" y="1554" type="line"/>
      <point x="650" y="1426"/>
      <point x="532" y="1304"/>
    </contour>
    <contour>
      <point x="1010" y="1170" type="curve"/>
      <point x="1070" y="1172" type="line"/>
      <point x="1000" y="1298"/>
      <point x="930" y="1428"/>
      <point x="860" y="1554" type="curve"/>
      <point x="782" y="1554" type="line"/>
      <point x="854" y="1424"/>
      <point x="934" y="1298"/>
    </contour>
  </outline>
</glyph>
<glyph name="circumflexcomb_tildecomb.case" format="2">
  <anchor x="704" y="988" name="_top"/>
  <outline>
    <contour>
      <point x="406" y="1154" type="curve"/>
      <point x="480" y="1154" type="line"/>
      <point x="610" y="1270"/>
      <point x="732" y="1380"/>
      <point x="852" y="1500" type="curve"/>
      <point x="762" y="1500" type="line"/>
      <point x="644" y="1384"/>
      <point x="526" y="1272"/>
    </contour>
    <contour>
      <point x="1006" y="1150" type="curve"/>
      <point x="1066" y="1152" type="line"/>
      <point x="996" y="1266"/>
      <point x="922" y="1386"/>
      <point x="852" y="1500" type="curve"/>
      <point x="774" y="1500" type="line"/>
      <point x="848" y="1380"/>
      <point x="928" y="1266"/>
    </contour>
    <contour>
      <point x="990" y="1554" type="curve" smooth="yes"/>
      <point x="1094" y="1554"/>
      <point x="1164" y="1632"/>
      <point x="1188" y="1776" type="curve"/>
      <point x="1132" y="1776" type="line"/>
      <point x="1106" y="1664"/>
      <point x="1068" y="1620"/>
      <point x="994" y="1616" type="curve"/>
      <point x="874" y="1620"/>
      <point x="832" y="1802"/>
      <point x="688" y="1802" type="curve" smooth="yes"/>
      <point x="584" y="1802"/>
      <point x="516" y="1724"/>
      <point x="490" y="1580" type="curve"/>
      <point x="546" y="1580" type="line"/>
      <point x="570" y="1692"/>
      <point x="612" y="1736"/>
      <point x="686" y="1740" type="curve"/>
      <point x="804" y="1736"/>
      <point x="846" y="1554"/>
    </contour>
  </outline>
</glyph>
<glyph name="circumflexcomb_tildecomb" format="2">
  <anchor x="700" y="988" name="_top"/>
  <outline>
    <contour>
      <point x="1006" y="1614" type="curve" smooth="yes"/>
      <point x="1110" y="1614"/>
      <point x="1180" y="1692"/>
      <point x="1204" y="1836" type="curve"/>
      <point x="1148" y="1836" type="line"/>
      <point x="1122" y="1724"/>
      <point x="1084" y="1680"/>
      <point x="1010" y="1676" type="curve"/>
      <point x="890" y="1680"/>
      <point x="848" y="1862"/>
      <point x="704" y="1862" type="curve" smooth="yes"/>
      <point x="600" y="1862"/>
      <point x="532" y="1784"/>
      <point x="506" y="1640" type="curve"/>
      <point x="562" y="1640" type="line"/>
      <point x="586" y="1752"/>
      <point x="628" y="1796"/>
      <point x="702" y="1800" type="curve"/>
      <point x="820" y="1796"/>
      <point x="862" y="1614"/>
    </contour>
    <contour>
      <point x="410" y="1174" type="curve"/>
      <point x="484" y="1174" type="line"/>
      <point x="616" y="1302"/>
      <point x="738" y="1424"/>
      <point x="860" y="1554" type="curve"/>
      <point x="770" y="1554" type="line"/>
      <point x="650" y="1426"/>
      <point x="532" y="1304"/>
    </contour>
    <contour>
      <point x="1010" y="1170" type="curve"/>
      <point x="1070" y="1172" type="line"/>
      <point x="1000" y="1298"/>
      <point x="930" y="1428"/>
      <point x="860" y="1554" type="curve"/>
      <point x="782" y="1554" type="line"/>
      <point x="854" y="1424"/>
      <point x="934" y="1298"/>
    </contour>
  </outline>
</glyph>
<glyph name="dblgravecomb.case" format="2">
  <anchor x="704" y="988" name="_top"/>
  <anchor x="796" y="1432" name="top"/>
  <outline>
    <contour>
      <point x="588" y="1152" type="curve"/>
      <point x="648" y="1154" type="line"/>
      <point x="576" y="1270"/>
      <point x="504" y="1386"/>
      <point x="432" y="1502" type="curve"/>
      <point x="354" y="1502" type="line"/>
      <point x="428" y="1382"/>
      <point x="510" y="1268"/>
    </contour>
    <contour>
      <point x="920" y="1152" type="curve"/>
      <point x="976" y="1154" type="line"/>
      <point x="916" y="1272"/>
      <point x="858" y="1386"/>
      <point x="800" y="1502" type="curve"/>
      <point x="726" y="1502" type="line"/>
      <point x="788" y="1386"/>
      <point x="854" y="1268"/>
    </contour>
  </outline>
</glyph>
<glyph name="dotaccentcomb.case" format="2">
  <anchor x="302" y="988" name="_top"/>
  <anchor x="372" y="1330" name="top"/>
  <outline>
    <contour>
      <point x="356" y="1236" type="curve" smooth="yes"/>
      <point x="406" y="1236"/>
      <point x="434" y="1262"/>
      <point x="448" y="1326" type="curve" smooth="yes"/>
      <point x="460" y="1382"/>
      <point x="438" y="1410"/>
      <point x="390" y="1410" type="curve" smooth="yes"/>
      <point x="342" y="1410"/>
      <point x="314" y="1398"/>
      <point x="302" y="1348" type="curve" smooth="yes"/>
      <point x="284" y="1276"/>
      <point x="304" y="1236"/>
    </contour>
  </outline>
</glyph>
<glyph name="naira.BRACKET.140" format="2">
  <advance width="1570"/>
  <outline>
    <contour>
      <point x="164" y="0" type="curve"/>
      <point x="236" y="0" type="line"/>
      <point x="268" y="160"/>
      <point x="294" y="290"/>
      <point x="328" y="460" type="curve"/>
      <point x="500" y="1266" type="line"/>
      <point x="508" y="1266" type="line"/>
      <point x="752" y="768" type="line"/>
      <point x="898" y="466"/>
      <point x="1016" y="220"/>
      <point x="1122" y="0" type="curve"/>
      <point x="1196" y="0" type="line"/>
      <point x="1228" y="158"/>
      <point x="1254" y="290"/>
      <point x="1288" y="458" type="curve"/>
      <point x="1384" y="910" type="line"/>
      <point x="1422" y="1078"/>
      <point x="1454" y="1218"/>
      <point x="1488" y="1368" type="curve"/>
      <point x="1416" y="1368" type="line"/>
      <point x="1386" y="1220"/>
      <point x="1356" y="1076"/>
      <point x="1322" y="908" type="curve"/>
      <point x="1152" y="108" type="line"/>
      <point x="1144" y="108" type="line"/>
      <point x="898" y="610" type="line"/>
      <point x="782" y="850"/>
      <point x="658" y="1104"/>
      <point x="530" y="1368" type="curve"/>
      <point x="456" y="1368" type="line"/>
      <point x="426" y="1220"/>
      <point x="396" y="1078"/>
      <point x="362" y="910" type="curve"/>
      <point x="266" y="458" type="line"/>
      <point x="228" y="288"/>
      <point x="200" y="160"/>
    </contour>
    <contour>
      <point x="114" y="676" type="line"/>
      <point x="192" y="678"/>
      <point x="274" y="678"/>
      <point x="342" y="680" type="curve"/>
      <point x="354" y="736" type="line"/>
      <point x="286" y="738"/>
      <point x="204" y="738"/>
      <point x="128" y="740" type="curve"/>
    </contour>
    <contour>
      <point x="1308" y="680" type="line"/>
      <point x="1376" y="678"/>
      <point x="1458" y="678"/>
      <point x="1532" y="676" type="curve"/>
      <point x="1546" y="740" type="line"/>
      <point x="1470" y="738"/>
      <point x="1388" y="738"/>
      <point x="1320" y="736" type="curve"/>
    </contour>
  </outline>
</glyph>
<glyph name="ogonekcomb.a" format="2">
  <anchor x="494" y="0" name="_ogonek"/>
  <outline>
    <contour>
      <point x="386" y="-400" type="curve" smooth="yes"/>
      <point x="406" y="-400"/>
      <point x="442" y="-396"/>
      <point x="484" y="-390" type="curve"/>
      <point x="496" y="-328" type="line"/>
      <point x="456" y="-334"/>
      <point x="422" y="-338"/>
      <point x="388" y="-342" type="curve"/>
      <point x="318" y="-342"/>
      <point x="278" y="-310"/>
      <point x="292" y="-244" type="curve" smooth="yes"/>
      <point x="312" y="-154"/>
      <point x="432" y="-72"/>
      <point x="556" y="0" type="curve"/>
      <point x="528" y="42" type="line"/>
      <point x="510" y="42" type="line"/>
      <point x="506" y="20" type="line"/>
      <point x="328" y="-74"/>
      <point x="250" y="-148"/>
      <point x="230" y="-236" type="curve" smooth="yes"/>
      <point x="210" y="-328"/>
      <point x="270" y="-400"/>
    </contour>
  </outline>
</glyph>
<glyph name="one.dnom" format="2">
  <advance width="606"/>
  <outline>
    <contour>
      <point x="112" y="684" type="line"/>
      <point x="244" y="748"/>
      <point x="358" y="804"/>
      <point x="462" y="854" type="curve"/>
      <point x="474" y="920" type="line"/>
      <point x="350" y="862"/>
      <point x="228" y="804"/>
      <point x="108" y="748" type="curve"/>
    </contour>
    <contour>
      <point x="248" y="0" type="curve"/>
      <point x="316" y="0" type="line"/>
      <point x="334" y="92"/>
      <point x="352" y="182"/>
      <point x="374" y="294" type="curve"/>
      <point x="438" y="596" type="line"/>
      <point x="464" y="710"/>
      <point x="488" y="820"/>
      <point x="510" y="918" type="curve"/>
      <point x="472" y="920" type="line"/>
      <point x="436" y="888" type="line"/>
      <point x="416" y="790"/>
      <point x="396" y="690"/>
      <point x="376" y="592" type="curve"/>
      <point x="314" y="296" type="line"/>
      <point x="288" y="180"/>
      <point x="270" y="98"/>
    </contour>
  </outline>
</glyph>
<glyph name="three.dnom" format="2">
  <advance width="806"/>
  <outline>
    <contour>
      <point x="312" y="-12" type="curve" smooth="yes"/>
      <point x="518" y="-12"/>
      <point x="630" y="70"/>
      <point x="658" y="208" type="curve" smooth="yes"/>
      <point x="690" y="362"/>
      <point x="580" y="454"/>
      <point x="492" y="478" type="curve"/>
      <point x="494" y="486" type="line"/>
      <point x="606" y="506"/>
      <point x="696" y="568"/>
      <point x="720" y="674" type="curve" smooth="yes"/>
      <point x="752" y="818"/>
      <point x="644" y="934"/>
      <point x="468" y="934" type="curve" smooth="yes"/>
      <point x="406" y="934"/>
      <point x="246" y="880"/>
      <point x="172" y="852" type="curve"/>
      <point x="170" y="776" type="line"/>
      <point x="296" y="830"/>
      <point x="428" y="874"/>
      <point x="464" y="874" type="curve"/>
      <point x="610" y="872"/>
      <point x="682" y="800"/>
      <point x="658" y="682" type="curve" smooth="yes"/>
      <point x="636" y="570"/>
      <point x="534" y="514"/>
      <point x="328" y="512" type="curve"/>
      <point x="304" y="512"/>
      <point x="278" y="514"/>
      <point x="254" y="514" type="curve"/>
      <point x="242" y="452" type="line"/>
      <point x="266" y="452"/>
      <point x="292" y="454"/>
      <point x="318" y="454" type="curve"/>
      <point x="524" y="452"/>
      <point x="628" y="362"/>
      <point x="598" y="222" type="curve" smooth="yes"/>
      <point x="574" y="110"/>
      <point x="498" y="52"/>
      <point x="310" y="48" type="curve"/>
      <point x="240" y="48"/>
      <point x="132" y="90"/>
      <point x="10" y="144" type="curve"/>
      <point x="-14" y="80" type="line"/>
      <point x="104" y="34"/>
      <point x="238" y="-12"/>
    </contour>
  </outline>
</glyph>
